<?xml version="1.0" encoding="utf-8"?>
<!-- Generator: Adobe Illustrator 19.2.0, SVG Export Plug-In . SVG Version: 6.00 Build 0)  -->
<svg version="1.1" id="Layer_1" xmlns="http://www.w3.org/2000/svg" xmlns:xlink="http://www.w3.org/1999/xlink" x="0px" y="0px"
	 viewBox="0 0 130 44" style="enable-background:new 0 0 130 44;" xml:space="preserve">
<style type="text/css">
	.st0{fill-rule:evenodd;clip-rule:evenodd;fill:#80C342;}
	.st1{fill:#00AE4D;}
	.st2{fill:#FFFFFF;}
	.st3{fill:none;stroke:#008C44;stroke-width:5.786100e-002;}
	.st4{fill:#DF2027;}
	.st5{fill:#00A146;}
</style>
<g>
	<polygon class="st0" points="5.5,21.5 5.3,21.3 5.1,20.9 4.8,20.7 4.6,20.8 4.4,21.1 4.3,21.5 4.1,21.6 3.9,21.5 3.6,21.5 
		3.5,21.6 3.2,21.7 3.1,21.6 3,21.4 3,21 2.8,20.9 2.6,20.9 2.4,21.2 2.2,21.2 2,21.4 2,21.5 1.4,21.5 1.2,21.4 1.1,21.1 1.1,20.8 
		1.4,20.7 1.5,20.7 1.6,20.2 1.7,19.9 2,19.8 2.1,19.8 2.2,20.1 2.3,20.2 2.6,20.4 2.6,20.2 2.7,20.1 2.7,20 2.9,19.8 3.4,19.9 
		3.6,19.7 3.4,19.5 3.3,19.5 3,19.3 2.9,19.3 2.8,19.2 2.8,19.1 2.5,18.9 2.4,18.8 2.4,18.5 2.3,18.4 2.2,18.1 2,18 2.2,17.8 
		2.6,17.9 2.6,17.6 2.5,17.5 2.6,17.3 2.7,17.2 2.9,17.2 3,17.4 3.1,17.5 3.2,17.5 3.3,17.2 3.1,17.1 3.1,17 3.3,16.7 3.5,16.7 
		3.7,16.6 3.8,16.5 3.7,16.2 3.4,16.2 3.3,16 3.2,15.9 3.2,15.2 3.3,15.1 3.6,15.1 3.6,14.6 3.8,14.5 4.1,14.5 4.1,14.9 4.3,15 
		4.4,14.9 4.7,14.9 4.8,15.1 5.2,15.1 5.2,14.7 5.1,14.7 5.2,14.3 5.2,13.9 5.1,13.9 4.8,14 4.8,13.7 4.7,13.6 4.3,13.6 4.2,13.4 
		4.2,13 4.6,13.1 4.7,13.2 4.9,13.1 5,12.8 4.9,12.5 5,12.4 5.3,12.4 5.4,12.2 5.4,12 5.6,11.9 6,11.9 6.2,11.8 6.2,11.5 6,11.4 
		6.1,11.1 6.3,11 6.7,11 6.7,10.8 6.8,10.6 7.1,10.5 7.2,10.7 7.3,10.8 7.5,10.9 7.6,10.8 7.9,10.8 8,10.9 8,11.2 7.9,11.2 8,11.5 
		8.2,11.3 8.4,11.3 8.5,11.5 8.5,11.7 8.6,12 8.7,12 8.9,11.9 8.9,11.6 9,11.6 9.2,11.4 9.3,11.1 9.3,10.9 9.2,10.5 9.2,10.1 9,9.8 
		9.1,9.7 9.2,9.5 9.4,9.5 9.5,9.1 9.7,9 9.8,8.9 9.9,9 10.2,9.3 10.4,9.2 10.6,9.1 10.7,8.9 10.9,9.1 11.1,9.1 11.3,9 11.4,9 
		11.4,9.3 11.2,9.6 11.2,9.7 11.4,9.9 11.5,10 11.6,10.2 12,10.3 12.1,10.2 12.3,10.3 12.3,10.7 12.5,11 13,11 13.3,11.1 13.2,11.4 
		13.2,11.5 13,11.7 13.1,11.9 13.4,11.9 13.5,11.8 13.6,11.7 13.9,11.7 14.2,11.6 14.2,11.3 14.1,11.2 13.8,11.2 13.9,10.8 
		13.7,10.5 13.2,10.5 13.1,10.2 13.1,10 12.8,9.8 12.6,9.7 12.4,9.3 12.4,9.2 12.6,9 12.7,8.9 13,8.9 13.1,9 13.4,9.2 13.7,8.9 
		13.5,8.8 13.4,8.7 13.3,8.7 13,8.7 12.9,8.4 13,8.3 13.2,8.2 13.7,8.2 13.8,8.1 14,7.8 14.1,7.7 14.2,7.8 14.4,8 14.6,8.1 14.8,8 
		14.9,7.7 15,7.7 15.2,7.6 15.4,7.8 15.7,7.8 15.8,7.6 16.4,7.5 16.8,7.5 17.2,7.6 17.4,7.6 17.7,7.8 17.8,8.1 18.1,8.1 18.1,8.6 
		17.8,8.7 17.5,8.8 17.1,8.9 16.7,8.9 16.6,9.2 16.6,9.3 16.7,9.4 16.8,9.6 16.9,9.3 17.1,9.2 17.2,9.2 17.3,9.5 17.3,9.6 17.5,9.9 
		17.8,9.9 18,9.7 18,9.5 18.1,9.4 18.3,9.2 18.6,9.1 18.6,8.9 18.7,8.6 19,8.5 19.1,8.3 19.1,8.1 19,8.1 18.9,7.7 19,7.5 19.4,7.6 
		19.5,7.7 19.5,7.8 19.7,8 20.3,7.9 20.2,8.2 20.2,8.3 20,8.5 20,8.6 20.4,8.7 20.5,8.8 20.7,8.7 20.8,8.4 20.8,8.3 21.1,8 
		21.4,7.9 21.6,7.9 21.6,8 21.8,8.3 21.9,8.4 22,8.3 22.3,8.3 22.6,8.2 22.7,8.3 22.8,8.5 22.8,8.7 22.7,8.7 22.5,8.9 22.4,9 
		22.5,9.1 22.4,9.4 21.9,9.3 21.8,9.7 22.4,10.2 22.8,10.2 23,10 23.2,9.8 23.2,9.4 23.4,9.3 23.6,9.3 23.7,9.6 24,9.4 24.2,9.4 
		24.4,9.6 24.2,9.8 24,10 24,10.2 24.1,10.4 24.5,10.1 24.6,10 24.9,9.8 25.3,9.9 25.5,10 25.7,10.1 25.5,10.5 25.4,10.7 25.3,10.9 
		25.2,11.1 25.4,11.2 25.4,11.5 25.5,11.7 25.7,11.9 25.9,11.7 26,11.5 26.2,11.4 26.3,11 26.6,11 26.7,11.2 26.7,11.5 26.9,11.5 
		27.1,11.4 27.3,11.5 27.5,11.7 27.5,11.8 27.2,11.9 26.9,11.9 26.7,12 26.5,12.2 26.7,12.3 27.3,12.3 27.4,12.4 27.4,12.7 
		27.7,13.1 27.8,13 28,12.9 28.1,12.7 28.4,12.6 28.8,12.8 28.9,13 28.9,13.3 28.7,13.6 28.6,13.7 28.3,13.5 28.1,13.5 27.8,13.7 
		27.8,13.9 27.9,14.2 28,14.1 28.2,14.1 28.3,14.2 28.4,14.3 28.3,14.6 28.4,14.7 28.7,14.7 29,14.5 29.5,14.5 29.6,14.4 29.8,14.4 
		30,14.5 30.2,14.7 30.2,14.8 30,14.9 30,15.1 29.7,15.1 29.6,15.2 29.5,15.3 29.3,15.4 29.5,15.7 29.7,15.8 30,15.7 30.3,15.7 
		30.4,15.9 30.2,16 30.1,16.1 30,16.2 30,16.5 30.1,16.6 30.1,17 29.8,17 29.7,16.9 29.5,16.7 29.4,16.9 29.4,17.3 29.3,17.4 
		29.1,17.7 29,17.8 29.1,18.1 29.4,18.1 29.5,18.2 29.6,18.2 29.8,18.1 29.9,18 30,17.8 30.2,17.8 30.3,18 30.3,18.4 30.5,18.4 
		30.7,18.5 30.8,18.5 30.8,18.8 30.7,18.9 30.6,19.2 31,19.2 31.3,19.5 31.2,19.6 31,19.7 30.9,19.8 30.9,20.1 31,20.2 30.9,20.4 
		30.7,20.4 30.6,20.2 30.3,20.3 30.2,20.5 30.2,20.6 30.3,20.7 30.4,20.9 31,20.9 31.2,21 31.5,21.2 31.5,21.6 31.4,21.6 31.2,21.7 
		31,21.7 30.9,21.8 30.8,22.1 30.9,22.2 31.1,22.3 31.5,22.4 31.6,22.6 31.7,22.8 31.8,22.8 32,22.9 32.2,22.9 32.2,23.3 32.1,23.4 
		32.1,23.6 31.9,23.7 31.7,23.8 31.5,23.9 31.4,23.9 31.5,24.2 31.5,24.5 31.6,24.6 31.6,24.9 31.5,25 31.1,25 31,25.1 31,25.3 
		31.1,25.5 31.1,25.6 30.8,25.9 30.7,25.9 30.5,25.7 30.5,25.6 30.3,25.5 30.1,25.5 30,25.3 29.9,25.3 29.6,25.5 29.5,25.7 29.5,26 
		29.7,26.1 29.9,26 30.1,26.1 30.2,26.3 30.2,26.4 30.1,26.5 30,26.7 29.8,26.8 29.7,26.9 29.8,27.2 29.9,27.3 29.9,27.4 29.8,27.7 
		29.7,27.8 29.3,27.8 29.1,27.9 29,28.2 29,28.3 28.7,28.3 28.6,28.2 28.6,28.1 28.5,27.8 28.3,27.8 28.1,27.9 27.9,28.2 28.2,28.4 
		28.2,28.7 28,28.7 27.8,28.8 27.6,28.8 27.5,28.7 27.4,28.5 27.2,28.5 27,28.8 27,28.9 26.8,29 26.7,28.9 26.6,28.9 26.4,29 
		26.4,29.2 26.6,29.3 26.5,29.4 26.4,29.7 26,29.7 25.9,29.5 25.9,29 25.6,29 25.5,29.3 25.2,29.3 25.1,29 24.8,29 24.6,29.1 
		24.4,29.4 24.6,29.6 24.8,29.6 24.9,29.9 25.1,30 25.3,30 25.5,30.2 25.6,30.3 25.6,30.4 25.4,30.7 25.4,30.8 25.6,31 26.1,31 
		26.2,31.3 26.3,31.4 26.3,31.5 26.2,31.8 25.4,31.8 25.3,32 25.3,32.2 25.4,32.3 25.8,32.3 25.9,32.4 25.9,32.7 25.8,33 25.6,33.2 
		25.3,33.3 24.5,33.3 24.3,33.2 24,33.2 23.9,33.6 23.9,34 23.5,33.9 23.3,33.8 23.4,33 23.2,32.9 23,32.9 22.8,33 22.6,33 
		22.5,32.9 22.3,33 22.2,33.1 22,33.2 22.2,33.4 22.4,33.6 22.5,33.9 22.5,34 22.4,34.4 22.1,34.5 21.8,34.4 21.7,34.3 21.5,34 
		21.5,34.1 21.3,34.4 21.3,34.5 21,34.8 20.8,34.5 20.4,34.5 20.4,34.6 20.1,34.7 20.3,34.9 20.1,35 20,35 19.8,34.8 19.7,34.8 
		19.6,35 19.3,34.9 19.2,34.8 19.1,34.7 18.9,34.6 18.8,34.8 18.5,34.7 18.4,34.7 18.3,34.5 18.1,34.4 18,33.7 17.8,33.8 17.6,34 
		17.5,34.3 17.2,34.4 17.2,34.5 17.3,34.7 17.4,34.7 17.3,35 17.1,35 16.9,35 16.7,35 16.6,35 16.5,34.8 16.2,34.7 16.2,34.6 
		16.1,34.6 15.8,34.5 15.8,34.5 15.7,34.4 15.8,34.2 16.1,34.1 16.1,34.1 16.4,34 16.3,33.8 16.2,33.7 16,33.7 15.9,33.8 15.6,34 
		15.4,34 15.2,33.9 15.2,33.8 14.8,33.7 14.8,33.6 14.7,33.5 14.9,33.3 14.6,33.1 14.5,33.1 14.1,33.2 14,32.9 13.7,32.9 13.6,33 
		13.5,33.2 13.7,33.4 13.8,33.6 13.9,33.6 13.8,33.8 13.5,34 13.5,34.7 13.3,35 13.1,35 13.1,34.9 13,34.7 12.5,34.7 12.6,34.1 
		12,34 11.9,33.9 11.9,33.6 12.1,33.4 12.3,33.3 12.2,33 12.2,32.9 12,32.9 11.8,33 11.7,33.4 11.5,33.1 11.1,33.1 11,33.3 11,33.6 
		11.1,33.9 11.1,34.1 10.9,34.1 10.6,34 10.4,34.1 10.2,34.4 9.9,34.4 9.8,34.2 9.8,33.8 9.9,33.7 9.7,33.6 9.5,33.4 9.6,33.2 
		9.7,33 10,32.9 10.2,32.8 10.1,32.5 10,32.4 9.9,32.5 9.6,32.6 9.5,32.5 9.3,32.4 9.3,32.2 9.1,32.2 8.8,32.5 8.7,32.6 8.8,32.9 
		8.6,33.3 8.2,33.2 8.1,33.1 8,33.2 7.6,33.2 7.4,33 7.6,32.8 7.6,32.4 7.5,32.3 7.3,32 7.5,31.8 8.1,31.8 8.2,31.5 8.3,31.4 
		8.7,31.3 8.7,31 8.4,30.9 8.3,30.7 8.3,30.6 8.2,30.6 7.9,30.7 7.6,30.8 7.5,30.8 7.4,30.7 7.3,30.8 7.1,31 6.9,31.2 6.4,31.2 
		6.2,31 6.1,31 5.8,30.9 5.5,31 5.3,30.7 5.1,30.5 4.7,30.5 4.6,30.3 4.8,30.2 5,30.1 5.2,29.7 4.9,29.6 4.4,29.5 4.3,29.3 
		4.4,28.9 4.1,28.7 3.8,28.6 3.6,28.5 3.8,28.2 4.4,28.2 4.7,28.4 4.8,28.5 4.9,28.8 5.1,28.9 5.3,28.8 5.5,28.7 5.2,28.5 5.4,28.3 
		5.5,28.1 5.5,27.7 4.7,27.7 4.6,27.6 4.6,27.3 4.7,27 5.1,26.9 5.4,27.1 5.7,27.2 5.9,27 5.9,26.7 5.8,26.4 5,26.4 4.8,26.3 
		4.8,26.4 4.6,26.6 4.4,26.8 4.1,26.6 4.1,26.8 3.9,27 3.4,27.1 3.3,27 3.3,26.9 3.2,26.7 2.9,26.7 2.9,26.6 3,26.3 2.9,26.2 
		2.8,26.2 2.8,25.5 3.1,25.4 3.2,25.4 3.5,25.3 3.5,24.9 3.1,24.9 3,25 2.7,25.1 2.6,24.8 2.7,24.7 2.3,24.6 2.2,24.4 2.2,24.3 
		2.3,24.1 2.6,24.1 2.9,23.7 2.3,23.6 2.4,23 2.5,22.9 2.3,22.6 2.4,22.3 2.5,22.3 2.7,22.2 2.9,22.4 3.1,22.5 3.1,22.6 3.2,22.6 
		3.3,22.5 3.4,22.5 3.6,22.4 4,22.7 4,22.8 4.2,22.9 4.5,23 4.5,22.6 4.4,22.3 4.8,22 4.8,22.2 5.2,22.2 5.6,21.9 5.5,21.8 	"/>
	<polygon class="st1" points="7,23.4 6.7,23.5 6.5,23.7 6.4,24.2 6.7,24.2 6.8,24.4 7,24.5 7,24.6 6.8,24.8 6.7,24.9 6.8,25.1 
		6.9,25.2 6.9,25.3 7.2,25.3 7.3,25 7.3,24.8 7.5,24.6 7.6,24.8 7.7,24.8 8,24.9 8.2,24.8 8.3,24.8 8.3,24.5 8.2,24.4 8,24.1 
		7.8,23.9 7.5,23.7 7.3,23.6 	"/>
	<polygon class="st1" points="9.4,25.6 9.3,25.8 9.2,25.9 9,25.9 8.9,25.7 8.8,25.7 8.6,25.9 8.5,26 8.6,26.1 8.6,26.4 8.5,26.4 
		8.3,26.5 8.3,27 8.6,27.1 8.9,27.2 9,27.1 9.1,26.9 9.4,27 9.9,26.7 10.1,26.6 10.1,26.5 9.9,26.3 9.8,26 9.7,25.9 9.7,25.8 	"/>
	<polygon class="st1" points="10.7,28.3 10.7,28.4 10,28.4 9.6,28.7 9.6,29.1 9.7,29.2 10,29.2 10.1,29.3 10.1,29.5 10.5,30 
		10.6,29.8 10.6,29.5 10.8,29.2 10.9,29 10.9,28.3 	"/>
	<polygon class="st1" points="19.1,30.2 19,30.3 18.7,30.5 18.4,30.6 18.4,30.7 18.3,30.8 18.3,31.1 18.4,31.2 18.5,31.2 18.6,31.5 
		18.5,31.8 18.6,31.9 18.8,32 19.2,31.8 19.3,31.7 19.4,30.3 19.2,30.3 	"/>
	<polygon class="st1" points="22.9,30.1 22.8,30.2 22.8,30.6 22.9,30.7 23,31 23.2,31.2 23.3,31.3 23.3,31.4 23.4,31.7 23.5,31.7 
		23.6,31.6 23.7,31.3 23.8,31.2 24,31.2 24.1,31 24.1,30.7 23.3,30.6 23.2,30.4 23.1,30.1 	"/>
	<polygon class="st1" points="29.1,22.3 28.9,22.4 28.8,22.5 28.8,22.9 28.6,23 28.5,23.2 28.5,23.4 28.6,23.6 28.9,23.7 29.2,23.6 
		29.3,23.5 29.4,23.5 30,23.5 30.1,23.4 30.1,23 30,22.8 29.9,22.8 29.7,22.7 29.6,22.7 29.5,22.6 29.5,22.4 29.3,22.3 	"/>
	<polygon class="st1" points="20.1,9.8 20,10 19.8,10.1 20,10.2 19.8,10.4 19.7,10.3 19.6,10.5 19.6,10.7 19.7,10.9 20.3,10.9 
		21,10.9 21,10.5 20.9,10.4 20.6,10.4 20.5,10.2 20.4,10 20.2,9.8 	"/>
	<polygon class="st1" points="17.9,11.1 17.8,11.2 17.5,11.3 17.4,11.4 17.4,11.7 17.2,11.9 17.2,12.2 17.4,12.6 17.5,13 18,13 
		18,12.9 17.9,12.6 17.8,12.5 17.8,12.3 17.9,12.4 18,12.2 18.2,12.2 18.3,12.1 18.3,12 18.2,12 18.1,11.7 18.2,11.6 18.2,11.2 
		18.1,11.1 	"/>
	<polygon class="st1" points="16.4,12 16.3,12.2 16.3,12.3 16.2,12.4 15.8,12.4 15.6,12.6 15.6,12.8 15.7,12.9 15.9,12.9 15.9,13.1 
		16,13.2 15.7,13.2 15.6,13.3 15.6,13.7 15.8,13.9 15.8,14 15.7,14.1 15.7,14.4 15.8,14.5 16.2,14.6 16.4,14.7 16.6,14.4 16.5,14 
		16.4,13.8 16.5,13.5 16.5,13.2 16.7,13 16.7,12.7 16.6,12.3 16.6,12.2 	"/>
	<polygon class="st1" points="11.2,13 11.1,13.2 11.1,13.6 10.9,13.7 10.8,13.7 10.7,13.9 10.7,14.1 10.5,14.2 10.4,14.3 10.4,14.6 
		10.4,14.5 10.5,14.6 10.6,14.7 11.2,14.7 11.3,15 12,15 12.1,14.9 12.1,14.7 12,14.5 11.8,14.4 11.7,14.3 11.6,14.1 11.6,14 
		11.7,13.8 11.9,13.7 12,13.7 12,13.3 11.9,13.2 11.8,13.2 11.5,13 	"/>
	<polygon class="st1" points="6.1,19 6,19.2 5.8,19.3 5.7,19.6 5.3,19.6 5.1,19.7 5.1,19.9 5.3,20.1 5.8,20.1 5.9,20 6.2,20 
		6.3,20.1 6.2,20.2 6,20.4 6,20.5 6.2,20.6 6.2,20.8 6.4,20.8 6.6,20.6 6.7,20.9 6.8,21.2 7.1,21.3 7.2,21.5 7.3,21.3 7.9,20.8 
		7.9,20.7 7.8,20.4 7.7,20.2 7.4,19.8 7,19.5 6.6,19.2 6.4,19.1 	"/>
	<polygon class="st1" points="11.1,22.7 10.9,22.8 10.7,22.9 10.7,23.4 10.8,23.7 10.8,24 10.6,24 10.4,24.1 10.3,24.1 10.2,24.2 
		10.1,24.7 9.8,24.7 9.6,25 9.7,25.1 10,25.3 10.1,25.4 10.4,25.7 10.5,26.1 10.6,26.2 10.7,26.3 11,26.5 11.1,26.5 11.4,26.4 
		11.5,26.2 11.7,26.1 11.7,25.8 11.6,25.6 11.6,25.5 11.4,25.2 11.2,24.8 11.2,24.2 11.5,24 11.6,23.9 11.8,23.6 11.8,23.5 
		11.7,23.2 11.5,23.1 11.3,22.7 	"/>
	<polygon class="st1" points="12.9,24.4 12.8,24.6 12.7,24.7 12.5,25 12.4,25.2 12.4,25.6 12.6,25.9 12.9,26 13,25.9 13.1,25.8 
		13.6,25.4 13.7,25.5 13.8,25.5 13.8,25.1 13.7,24.9 13.6,24.6 13.5,24.5 	"/>
	<polygon class="st1" points="14.6,23.7 14.4,23.8 14.1,24 14.1,24.1 14.3,24.2 14.4,24.5 14.4,25.2 14.5,25.3 14.6,25.3 14.8,25.4 
		14.9,25.6 14.9,26.1 15.8,26.1 15.9,26.4 15.9,26.5 15.8,26.7 15.6,26.9 15.8,27.1 15.8,27.2 15.9,27.5 15.9,27.6 15.6,27.7 
		15.3,27.6 15.1,27.6 15.1,27 15,26.9 14.8,26.8 14.7,26.8 14.7,26.9 14.6,27 14.3,27 14.2,26.9 13.9,26.5 13.5,26.4 13.4,26.6 
		13.3,26.6 13.2,27 13.4,27.1 13.5,27.2 13.6,27.4 13.6,27.5 13.5,27.6 13.3,27.8 13.3,27.9 13.5,28 13.6,28.2 13.5,28.3 13.3,28.4 
		13.2,28.4 12.9,28.3 12.9,28.1 12.8,28 12.8,27.7 12.7,27.6 12.6,27.5 12.3,27.6 12,27.7 11.7,27.8 11.6,28.1 11.7,28.5 11.9,28.6 
		12.3,28.6 12.4,28.8 12.5,28.9 12.8,28.9 12.9,28.8 13.2,28.8 13.3,28.9 13.4,29.2 13.7,29.2 13.8,29.1 13.8,28.7 14,28.4 
		14.1,28.3 14.5,28.3 14.8,28.6 14.8,29 14.6,29.1 14.6,29.4 14.9,29.8 15,29.8 15.3,29.7 15.4,29.4 15.4,29 15.6,28.9 15.8,28.9 
		15.9,29 16.2,29.2 16.4,29.1 16.4,28.7 16.5,28.7 16.6,28.8 16.9,28.8 17,28.7 17.2,28.6 17,28.4 17,28.3 16.9,28.3 16.6,28.1 
		16.5,28 16.5,27.7 16.7,27.6 16.9,27.6 16.9,27.5 17.1,27.4 16.8,27.1 16.8,26.8 17,26.7 17.1,26.7 17.2,26.6 17.4,26.7 17.8,26.7 
		17.8,26.6 17.6,26.2 17.5,25.9 17.1,25.8 16.3,25.8 16.1,25.6 15.8,25.3 15.7,25.2 15.4,24.8 15.2,24.4 14.8,24 14.7,23.8 	"/>
	<polygon class="st1" points="18.8,27.3 18.7,27.5 18.3,27.5 18.1,27.7 18,27.9 18.1,28.2 18.2,28.5 18.2,28.6 17.9,28.7 17.9,29 
		18.1,29.1 18.5,29.1 18.7,29 18.7,28.9 19,28.6 19.2,28.4 19.3,28.1 19.2,27.8 19.2,27.6 18.9,27.3 	"/>
	<polygon class="st1" points="20.1,26.7 20,26.8 19.9,26.9 19.9,27.3 19.7,27.6 19.8,28.1 19.8,28.8 20.5,28.9 20.6,29.1 20.7,29.2 
		21.2,29.2 21.5,29 21.5,28.8 21.4,28.6 21,28.6 20.9,28.4 20.8,28.2 20.6,28 20.8,28 20.9,27.9 20.9,27.8 20.8,27.6 20.8,27.5 
		20.5,27.5 20.5,27.1 20.7,27 20.8,26.9 20.7,26.8 20.7,26.7 	"/>
	<polygon class="st1" points="22.2,25 22.2,25.2 22.1,25.3 22.1,25.4 22.2,25.6 22.4,25.7 22.6,25.9 22.5,26.4 22.7,26.5 22.9,26.7 
		22.9,26.5 23.2,26.4 23.2,26.3 23.4,26.1 23.2,25.9 23.1,25.7 23,25.6 22.7,25.3 22.6,25.1 	"/>
	<polygon class="st1" points="24.8,25.7 24.6,25.8 24.3,25.8 24.2,25.9 24,26 24.2,26.2 24.1,26.3 24.3,26.6 24.5,26.8 24.7,27 
		24.8,27.1 25,26.9 24.9,26.7 25.1,26.5 25.6,26.5 25.7,26.4 25.6,26.1 25.5,26 25.4,25.8 25,25.7 	"/>
	<polygon class="st1" points="25.6,21.9 25.2,22.1 24.8,22.2 24.6,22.4 24.2,22.2 23.8,22.1 23.5,22.1 23.4,22.3 23.3,22.8 24,22.9 
		24,23 24.1,23.1 24.1,23.3 24,23.4 23.8,23.4 23.8,23.5 23.7,23.7 23.8,23.9 23.8,24.1 23.4,24.2 23.3,24 22.9,24 22.9,24.2 
		23,24.6 23.1,24.7 23.3,25 23.5,25.1 23.8,25.2 23.9,25.1 24.5,25.1 24.7,25.3 25.2,25.3 25.5,25.1 25.8,25.1 25.9,25.2 26.3,25.5 
		26.8,25.5 27,25.4 27,25.2 27.1,25 27,24.8 26.9,24.7 26.5,24.7 26.3,24.5 26.2,24.4 26.2,24.2 25.8,24.1 25.7,24.2 25.5,24.4 
		25.1,24.4 25,24.1 24.9,24 24.9,23.7 25.2,23.7 25.3,23.6 25.4,23.5 25.5,23.2 25.3,23.1 25.2,22.8 25.2,22.7 25.3,22.5 25.7,22.5 
		26.1,22.7 26.3,22.6 26.3,22.2 26,21.9 	"/>
	<polygon class="st1" points="27.6,19.8 27.6,20 27.3,20 27.2,20.1 26.9,20.2 26.8,20.1 26.5,20.1 26.2,20.2 26.1,20.2 26,20.3 
		25,20.3 24.8,20.4 24.6,20.8 24.3,20.9 24.3,21.3 24.5,21.6 24.6,21.6 25,21.7 25.1,21.6 25.8,21.6 26.1,21.5 26.2,21.4 26.5,21.2 
		27,21.3 27,20.7 27.1,20.6 27.3,20.5 27.7,20.4 27.8,20.3 27.8,20.1 	"/>
	<polygon class="st1" points="25.8,15 25.5,15.2 25.3,15.3 25.2,15.4 25.2,16.2 25.1,16.3 24.8,16.3 24.7,16.2 24.5,16 24.5,15.9 
		24.3,15.8 23.9,15.6 23.5,15.7 23.3,15.9 23.2,16.5 22.9,16.9 22.6,17.3 22.2,17.5 21.7,17.9 20.9,18.1 20.3,18.3 19.4,18.2 
		19,18.3 18.6,18.4 18.3,18.8 18.2,19.1 18,19.6 17.9,19.9 17.8,20 17.7,20.1 17.6,20.4 17.6,20.5 17.8,20.7 18.2,20.7 18.5,20.6 
		19.2,20.6 19.3,20.7 19.6,20.9 20,20.8 20.1,20.6 20.3,20.4 20.5,20.2 20.8,20.1 21.2,20.1 21.3,20.4 21.6,20.5 21.8,20.4 22,20.3 
		22.1,20.3 22.2,20.4 22.4,20.6 22.6,20.7 22.6,20.6 22.8,20.5 22.9,20.3 23.2,20.3 23.2,20.9 23.3,21 23.4,21.1 23.8,21.2 
		24.1,20.9 24.1,20.6 24.2,20.3 24.2,20.1 24.1,20 24,20 23.9,19.8 23.6,20 23.5,20 23.3,19.8 23.3,19.4 23.2,19.3 23,19.3 
		22.8,19.1 22.8,19 22.7,18.9 22.8,18.7 23,18.6 22.8,18.5 22.7,18.5 22.6,18.3 22.5,18.2 22.6,18.1 22.7,17.9 23.1,18 23.3,18.1 
		23.7,18.1 23.9,17.7 24.1,17.7 24.2,17.9 24.2,18.3 24,18.4 24,18.5 23.8,18.6 23.8,18.9 23.9,19 24,19.2 24.1,19.2 24.3,19.1 
		24.5,19.1 24.7,19.2 24.8,19.3 24.9,19.5 25.3,19.8 25.7,19.6 26,19.7 26.1,19.5 26.2,18.9 26,18.7 25.9,18.6 25.6,18.6 25.5,18.7 
		25.2,18.7 25.1,18.6 25,18.3 25,18.2 25.2,18 25.5,18.1 25.5,17.7 25.4,17.5 25.3,17.4 25.1,17.2 25.1,17.1 25.3,17 25.4,17 
		25.6,16.7 25.4,16.6 25.6,16.6 25.7,16.5 25.8,16.6 26,16.8 26.2,16.8 26.5,16.6 26.5,16.4 26.4,16.1 26.1,16 26.1,15.4 26,15.3 
		25.9,15.2 	"/>
	<polygon class="st1" points="24.3,14.3 24.2,14.4 23.9,14.7 23.9,15.1 24,15.2 24.4,15.2 24.7,15.2 24.8,15 24.8,14.9 25,14.7 
		25.1,14.6 25.1,14.3 25,14.2 24.7,14.2 	"/>
	<polygon class="st1" points="24.8,12.8 24.6,12.9 24.5,13 24.4,13.1 24.1,13.1 24,13.4 23.9,13.9 24.2,13.8 24.4,13.5 24.5,13.4 
		24.8,13.4 24.9,13.3 25,13 25,12.9 24.9,12.8 	"/>
	<polygon class="st1" points="22.3,12.7 22.1,12.9 22.3,13.3 22.2,13.5 22.1,13.6 22,13.6 22,13.7 21.8,13.8 21.9,14 22.1,14.1 
		22.2,14.2 22.2,14.4 22.1,14.5 21.8,14.6 21.8,15 22,15.1 22,15.3 22.2,15.4 22,15.5 21.8,15.7 21.6,15.9 21.6,16.2 21.7,16.5 
		21.9,16.6 22,16.7 22.1,16.7 22.4,16.5 22.5,16.1 22.7,15.8 22.7,15.7 22.8,15.3 23.1,15.1 23.2,14.8 23.4,14.5 23.3,14.3 23.3,14 
		23.4,13.8 23.4,13.5 23.2,13.4 23,13.5 22.9,13.3 22.9,13 22.6,12.8 22.5,12.7 	"/>
	<polygon class="st1" points="20.7,16 20.5,16.1 20.5,16.5 20.4,16.8 20.2,16.9 20.4,17.2 20.5,17.5 21,17.5 21.2,17.4 21.3,17.4 
		21.3,17.2 21.3,17 21.2,16.8 21.2,16.3 20.9,16.2 20.8,16 	"/>
	<polygon class="st1" points="17.8,15.9 17.8,16.2 17.6,16.3 17.5,16.3 17.4,17.4 17.3,17.5 17.4,17.7 17.7,17.8 17.9,17.9 
		18.3,18.1 19.1,18.1 19.5,17.8 19.7,17.8 19.8,17.7 19.7,17.3 19.7,16.7 19.3,16.6 19.1,16.8 18.8,16.7 18.8,16.2 18.5,16.2 
		18.4,16.3 18.2,16.2 17.9,15.9 	"/>
	<polygon class="st1" points="15.3,15.2 15.1,15.3 15.1,16 15,16.2 15,16.6 14.8,16.6 14.8,17 14.9,17 15.1,16.9 15.3,17 15.4,17.3 
		15.3,17.5 14.9,17.5 14.8,17.7 14.6,17.9 14.8,18.1 14.9,18.2 14.9,18.4 14.6,18.4 14.5,18.6 14.3,18.8 14.5,19 14.6,19 14.7,19.1 
		14.7,19.2 14.6,19.5 14.7,19.6 14.8,19.8 15,19.9 15,20.2 14.8,20.4 14.9,20.7 15.5,20.7 15.6,20.5 15.6,20.2 15.5,19.9 15.5,19.8 
		15.4,19.5 15.4,19 15.7,18.7 15.9,18.5 16.1,18.2 16.4,18.1 16.6,18 16.8,17.6 16.8,16.5 16.7,16.3 16.4,16.3 16.4,16.1 16.3,15.9 
		16.2,15.7 15.8,15.7 15.8,15.6 15.6,15.4 15.7,15.3 15.5,15.2 	"/>
	<polygon class="st1" points="9.5,15.7 9.3,15.9 9.1,16.1 9.1,16.4 9,16.6 8.7,16.8 8.6,16.9 8.3,16.9 8.2,17 8,17.3 8,17.7 
		7.7,17.7 7.6,17.9 7.6,18 7.4,18.4 7.3,18.6 7.2,18.8 7.3,19 7.4,19.4 7.7,19.5 7.9,19.9 8.3,20.1 8.6,20.2 8.7,20.1 8.9,19.9 
		9,19.8 9,19.3 8.9,19 9,18.9 9.2,18.8 9.4,18.9 9.5,19.2 9.8,19.3 10,19.2 10,18.8 10.1,18.4 10.4,18.4 10.6,18.7 10.8,18.8 
		10.9,19.1 11.1,19.1 11.3,19 11.5,19 11.7,18.9 11.8,19 11.9,19.3 11.9,19.5 12.2,19.7 12.3,19.7 12.5,19.5 12.6,19.6 12.7,19.7 
		12.7,20 12.8,20.2 13.1,20.4 13.5,20.4 13.7,20.5 14.1,20.4 14.1,20.3 14,20 13.9,19.7 13.5,19.7 13.4,19.6 13.3,19.4 13.3,19.3 
		13.4,19.3 13.4,18.5 13.3,18.5 13.1,18.8 12.9,18.9 12.6,18.9 12.5,18.8 12.5,18.2 11.7,18.2 11.6,18.1 11.5,17.8 11.3,17.7 
		11.2,17.7 11.1,17.8 10.8,17.9 10.8,17.5 11,17.4 11,17.3 11.1,17 11,16.8 10.7,16.7 10.6,16.7 10.4,16.8 10.2,17 9.9,16.9 
		9.9,16.8 9.8,16.7 9.9,16.5 10.2,16.4 10.3,16.3 10.3,16 10.1,15.8 	"/>
	<polygon class="st1" points="12,20.6 11.7,20.8 11.7,21 11.9,21.2 12,21.4 12,21.6 12.1,21.9 12.1,22 12,22 11.7,22.2 11.8,22.4 
		11.9,22.6 12.1,22.8 12.5,23 13,23 13.3,22.9 13.5,22.8 13.7,22.6 13.8,22.4 13.9,22.2 14,22.1 13.8,21.7 13.7,21.4 13.5,21.3 
		13.2,21.2 12.8,21 12.4,20.9 	"/>
	<polygon class="st1" points="15.6,23 15.5,23.1 15.6,23.2 15.9,23.8 15.9,24 16,24.3 16.1,24.6 16.4,25 16.6,25.1 16.9,25.2 
		17.8,25.3 18.1,25.6 18.3,25.8 18.4,26.1 18.6,26.5 18.8,26.5 19,26.4 19,25.7 18.9,25.2 18.9,24.7 19,24.4 18.9,24.3 18.8,24.1 
		18.5,24.1 18.4,24.2 18.2,24.5 18.1,24.6 17.8,24.6 17.7,24.5 17.7,23.8 17.5,23.8 17.3,24.1 17.2,24.1 17,24.2 17.1,24.1 
		16.8,23.9 16.8,23.4 16.7,23.3 16.4,23 	"/>
	<polygon class="st1" points="19.7,24.3 19.6,24.4 19.5,25.6 19.6,25.9 19.8,26.1 20,26 20.2,26 20.4,26.2 20.7,26.2 20.8,25.8 
		21,25.8 21.2,26.1 21.4,26.1 21.6,26 21.6,25.7 21.4,25.5 21.3,25.4 21,25.1 21,24.6 20.9,24.5 20.8,24.6 20.2,24.6 20.1,24.4 	"/>
	<polygon class="st1" points="20.8,21 20.6,21.2 20.5,21.3 20.1,21.4 19.9,21.7 19.8,22.1 19.9,22.2 19.9,23.1 19.7,23.2 19.7,23.4 
		19.9,23.6 20.1,23.8 20.4,23.9 20.6,23.9 20.8,23.7 20.8,23.4 20.9,23.3 21.1,23.3 21.3,23.4 21.9,23.5 22,23.3 22.1,22.9 
		22.2,22.7 22,22.4 21.8,22.3 21.5,22.3 21.4,22.5 21.1,22.6 20.8,22.5 20.7,22.3 20.7,22.1 20.9,22.1 21.1,22 21.3,21.6 21.3,21.3 
		21.2,21.2 21,21 	"/>
	<polygon class="st1" points="17.1,18.5 17,18.7 16.6,18.6 16.3,19 16.2,19.3 16.2,19.6 16.3,19.8 16.4,20 16.5,20 16.7,20.1 
		16.8,19.8 16.8,19.4 17.1,19.2 17.2,18.9 17.4,18.8 17.3,18.7 	"/>
	<path class="st1" d="M17.3,22.4l0,0.1L17.3,22.4z M19,21.4l-0.3,0.1l0,0.7l-0.3,0L18.2,22l-0.1-0.3l-0.3-0.3l-0.1,0l-0.1,0.1l0,0.4
		l0.1,0.1l-0.1,0.1l-0.3,0.1l0.3,0.1l0.2,0.3l0.3,0.1l0.3,0.1l0.4,0.1l0.3,0.1l0.1-0.3l0.2-0.3l0-0.4l0.1-0.1l0-0.3l-0.1-0.4
		l-0.1-0.1L19,21.4"/>
	<path class="st1" d="M21.5,28.3L21,26.9L21.5,28.3z"/>
	<path class="st2" d="M9.9,24.3h4.9c0.1,0.6,0.4,1,0.7,1.2c0.4,0.2,0.9,0.4,1.6,0.4c0.6,0,1-0.1,1.4-0.3c0.3-0.2,0.5-0.5,0.5-0.8
		c0-0.6-0.7-1-2.1-1.4c-0.3-0.1-0.5-0.1-0.6-0.2c-1.1-0.3-2.1-0.6-2.7-0.8c-0.7-0.2-1.2-0.5-1.5-0.7c-0.6-0.4-1-0.9-1.3-1.5
		c-0.3-0.6-0.5-1.3-0.5-2.1c0-1.5,0.6-2.7,1.7-3.6c1.2-0.9,2.8-1.3,4.8-1.3c2,0,3.6,0.4,4.7,1.3c1.1,0.8,1.8,2,1.9,3.6h-4.7
		c-0.1-0.5-0.3-0.8-0.6-1c-0.3-0.2-0.8-0.3-1.4-0.3c-0.5,0-0.9,0.1-1.2,0.3c-0.3,0.2-0.4,0.4-0.4,0.8c0,0.5,0.7,0.9,2.1,1.3
		c0.1,0,0.2,0.1,0.3,0.1c0.2,0.1,0.5,0.1,0.9,0.2c1.8,0.5,3,0.9,3.5,1.2c0.7,0.5,1.2,1,1.5,1.6c0.3,0.6,0.5,1.3,0.5,2.1
		c0,1.7-0.6,3-1.8,4c-1.2,0.9-2.9,1.4-5.2,1.4c-2.1,0-3.7-0.5-4.9-1.4C10.8,27.3,10.1,26,9.9,24.3"/>
	<path class="st3" d="M9.9,24.3h4.9c0.1,0.6,0.4,1,0.7,1.2c0.4,0.2,0.9,0.4,1.6,0.4c0.6,0,1-0.1,1.4-0.3c0.3-0.2,0.5-0.5,0.5-0.8
		c0-0.6-0.7-1-2.1-1.4c-0.3-0.1-0.5-0.1-0.6-0.2c-1.1-0.3-2.1-0.6-2.7-0.8c-0.7-0.2-1.2-0.5-1.5-0.7c-0.6-0.4-1-0.9-1.3-1.5
		c-0.3-0.6-0.5-1.3-0.5-2.1c0-1.5,0.6-2.7,1.7-3.6c1.2-0.9,2.8-1.3,4.8-1.3c2,0,3.6,0.4,4.7,1.3c1.1,0.8,1.8,2,1.9,3.6h-4.7
		c-0.1-0.5-0.3-0.8-0.6-1c-0.3-0.2-0.8-0.3-1.4-0.3c-0.5,0-0.9,0.1-1.2,0.3c-0.3,0.2-0.4,0.4-0.4,0.8c0,0.5,0.7,0.9,2.1,1.3
		c0.1,0,0.2,0.1,0.3,0.1c0.2,0.1,0.5,0.1,0.9,0.2c1.8,0.5,3,0.9,3.5,1.2c0.7,0.5,1.2,1,1.5,1.6c0.3,0.6,0.5,1.3,0.5,2.1
		c0,1.7-0.6,3-1.8,4c-1.2,0.9-2.9,1.4-5.2,1.4c-2.1,0-3.7-0.5-4.9-1.4C10.8,27.3,10.1,26,9.9,24.3z"/>
	<path class="st4" d="M48.4,17.6c0,0.8-0.2,1.5-0.6,2.1c-0.4,0.6-1,1.1-1.7,1.4c-0.8,0.3-1.7,0.5-2.7,0.5c-1.2,0-2.3-0.2-3.1-0.7
		c-0.6-0.3-1-0.8-1.4-1.4c-0.4-0.6-0.5-1.1-0.5-1.7c0-0.3,0.1-0.6,0.3-0.8c0.2-0.2,0.5-0.3,0.8-0.3c0.3,0,0.5,0.1,0.7,0.3
		c0.2,0.2,0.3,0.4,0.5,0.8c0.2,0.4,0.3,0.7,0.5,1c0.2,0.3,0.5,0.5,0.8,0.7c0.3,0.2,0.8,0.3,1.3,0.3c0.8,0,1.4-0.2,1.8-0.5
		c0.5-0.4,0.7-0.8,0.7-1.3c0-0.4-0.1-0.8-0.4-1c-0.3-0.3-0.6-0.5-1-0.6c-0.4-0.1-0.9-0.3-1.6-0.4c-0.9-0.2-1.7-0.5-2.3-0.7
		c-0.6-0.3-1.1-0.7-1.5-1.2c-0.4-0.5-0.5-1.1-0.5-1.8c0-0.7,0.2-1.3,0.6-1.9c0.4-0.5,0.9-1,1.6-1.3c0.7-0.3,1.6-0.4,2.5-0.4
		c0.8,0,1.4,0.1,2,0.3c0.6,0.2,1,0.5,1.4,0.8c0.4,0.3,0.6,0.7,0.8,1c0.2,0.4,0.3,0.7,0.3,1c0,0.3-0.1,0.6-0.3,0.8
		c-0.2,0.2-0.5,0.4-0.8,0.4c-0.3,0-0.5-0.1-0.7-0.2c-0.2-0.1-0.3-0.4-0.5-0.7c-0.2-0.5-0.5-0.9-0.8-1.1c-0.3-0.3-0.8-0.4-1.6-0.4
		c-0.7,0-1.2,0.1-1.6,0.4c-0.4,0.3-0.6,0.6-0.6,1.1c0,0.2,0.1,0.5,0.2,0.7c0.1,0.2,0.3,0.3,0.6,0.5c0.2,0.1,0.5,0.2,0.7,0.3
		c0.2,0.1,0.6,0.2,1.2,0.3c0.7,0.2,1.4,0.4,1.9,0.6c0.6,0.2,1.1,0.4,1.5,0.7c0.4,0.3,0.7,0.7,1,1.1C48.3,16.5,48.4,17,48.4,17.6"/>
	<path class="st4" d="M52.7,10v3.4c0.3-0.4,0.6-0.6,0.9-0.8c0.3-0.2,0.6-0.4,0.9-0.5c0.3-0.1,0.7-0.1,1.1-0.1c0.6,0,1.1,0.1,1.6,0.4
		c0.5,0.3,0.8,0.6,1.1,1.1c0.2,0.3,0.3,0.6,0.3,1c0.1,0.4,0.1,0.8,0.1,1.2v4.6c0,0.5-0.1,0.8-0.3,1.1c-0.2,0.2-0.5,0.4-0.9,0.4
		c-0.8,0-1.2-0.5-1.2-1.5v-4c0-0.8-0.1-1.4-0.3-1.8c-0.2-0.4-0.6-0.6-1.3-0.6c-0.4,0-0.8,0.1-1.1,0.4c-0.3,0.2-0.6,0.6-0.7,1
		c-0.1,0.4-0.2,1-0.2,1.9v3.2c0,0.5-0.1,0.8-0.3,1.1c-0.2,0.2-0.5,0.4-0.9,0.4c-0.8,0-1.2-0.5-1.2-1.5V10c0-0.5,0.1-0.8,0.3-1.1
		c0.2-0.2,0.5-0.4,0.9-0.4c0.4,0,0.7,0.1,0.9,0.4C52.6,9.2,52.7,9.5,52.7,10"/>
	<path class="st4" d="M67.6,17.4H63c0,0.5,0.1,1,0.3,1.4c0.2,0.4,0.5,0.7,0.8,0.9c0.3,0.2,0.7,0.3,1.1,0.3c0.3,0,0.5,0,0.8-0.1
		c0.2-0.1,0.5-0.2,0.7-0.3c0.2-0.1,0.4-0.3,0.6-0.5c0.2-0.2,0.4-0.4,0.7-0.7c0.1-0.1,0.3-0.2,0.5-0.2c0.2,0,0.4,0.1,0.6,0.2
		c0.2,0.1,0.2,0.3,0.2,0.6c0,0.2-0.1,0.5-0.3,0.8c-0.2,0.3-0.4,0.6-0.8,0.8c-0.3,0.3-0.8,0.5-1.3,0.7c-0.5,0.2-1.1,0.3-1.7,0.3
		c-1.5,0-2.7-0.4-3.5-1.3c-0.8-0.9-1.3-2.1-1.3-3.6c0-0.7,0.1-1.4,0.3-2c0.2-0.6,0.5-1.1,0.9-1.6c0.4-0.4,0.9-0.8,1.5-1
		c0.6-0.2,1.2-0.3,1.9-0.3c0.9,0,1.7,0.2,2.4,0.6c0.7,0.4,1.1,0.9,1.5,1.5c0.3,0.6,0.5,1.3,0.5,1.9c0,0.6-0.2,1-0.5,1.2
		C68.7,17.3,68.2,17.4,67.6,17.4 M63,16h4.3c-0.1-0.8-0.3-1.4-0.7-1.8c-0.4-0.4-0.9-0.6-1.5-0.6c-0.6,0-1.1,0.2-1.4,0.6
		C63.3,14.6,63.1,15.2,63,16"/>
	<path class="st4" d="M73.4,9.9v3.5c0.4-0.5,0.9-0.8,1.3-1.1c0.5-0.2,1-0.4,1.7-0.4c0.8,0,1.5,0.2,2.1,0.6c0.6,0.4,1,0.9,1.4,1.6
		c0.3,0.7,0.5,1.6,0.5,2.5c0,0.7-0.1,1.4-0.3,2c-0.2,0.6-0.4,1.1-0.8,1.6c-0.3,0.4-0.8,0.8-1.3,1c-0.5,0.2-1,0.4-1.6,0.4
		c-0.4,0-0.7,0-1-0.1c-0.3-0.1-0.6-0.2-0.8-0.3c-0.2-0.1-0.4-0.3-0.6-0.4c-0.2-0.2-0.4-0.4-0.6-0.7v0.2c0,0.5-0.1,0.8-0.3,1
		c-0.2,0.2-0.5,0.3-0.8,0.3c-0.3,0-0.6-0.1-0.8-0.3c-0.2-0.2-0.3-0.6-0.3-1V10c0-0.5,0.1-0.8,0.3-1.1c0.2-0.2,0.5-0.4,0.8-0.4
		c0.4,0,0.6,0.1,0.8,0.4C73.3,9.2,73.4,9.5,73.4,9.9 M73.5,16.9c0,0.9,0.2,1.7,0.6,2.2c0.4,0.5,1,0.8,1.7,0.8c0.6,0,1.1-0.3,1.5-0.8
		c0.4-0.5,0.6-1.3,0.6-2.2c0-0.6-0.1-1.2-0.3-1.6c-0.2-0.5-0.4-0.8-0.8-1.1c-0.3-0.2-0.7-0.4-1.1-0.4c-0.4,0-0.8,0.1-1.2,0.4
		c-0.3,0.2-0.6,0.6-0.8,1.1C73.6,15.7,73.5,16.2,73.5,16.9"/>
	<path class="st4" d="M88.2,20.3c-0.6,0.5-1.1,0.8-1.6,1c-0.5,0.2-1.1,0.3-1.8,0.3c-0.6,0-1.1-0.1-1.6-0.4c-0.5-0.2-0.8-0.6-1.1-1
		c-0.2-0.4-0.4-0.9-0.4-1.3c0-0.7,0.2-1.2,0.6-1.7c0.4-0.5,1-0.8,1.7-0.9c0.1,0,0.5-0.1,1.1-0.2c0.6-0.1,1.1-0.2,1.5-0.3
		c0.4-0.1,0.9-0.2,1.4-0.4c0-0.6-0.2-1.1-0.4-1.4c-0.2-0.3-0.7-0.4-1.4-0.4c-0.6,0-1,0.1-1.3,0.3c-0.3,0.2-0.6,0.4-0.8,0.8
		c-0.2,0.3-0.4,0.6-0.5,0.7c-0.1,0.1-0.3,0.2-0.6,0.2c-0.3,0-0.5-0.1-0.7-0.3c-0.2-0.2-0.3-0.4-0.3-0.7c0-0.4,0.1-0.8,0.4-1.2
		c0.3-0.4,0.7-0.7,1.4-1c0.6-0.3,1.4-0.4,2.3-0.4c1,0,1.8,0.1,2.4,0.4c0.6,0.3,1,0.6,1.3,1.2c0.2,0.5,0.4,1.2,0.4,2.1
		c0,0.6,0,1,0,1.4c0,0.4,0,0.8,0,1.3c0,0.4,0.1,0.9,0.2,1.4c0.1,0.5,0.2,0.8,0.2,0.9c0,0.2-0.1,0.5-0.3,0.7
		c-0.2,0.2-0.5,0.3-0.8,0.3c-0.2,0-0.5-0.1-0.7-0.3C88.7,21.1,88.4,20.8,88.2,20.3 M88,16.9c-0.3,0.1-0.8,0.3-1.5,0.4
		c-0.7,0.1-1.1,0.2-1.4,0.3c-0.3,0.1-0.5,0.2-0.7,0.4c-0.2,0.2-0.3,0.5-0.3,0.8c0,0.4,0.1,0.7,0.4,0.9c0.3,0.3,0.6,0.4,1.1,0.4
		c0.5,0,0.9-0.1,1.3-0.3c0.4-0.2,0.7-0.5,0.9-0.8c0.2-0.4,0.3-1,0.3-1.8V16.9z"/>
	<path class="st5" d="M45.2,25.7h-2.3v7c0,0.4-0.1,0.7-0.3,0.9c-0.2,0.2-0.4,0.3-0.8,0.3c-0.3,0-0.6-0.1-0.8-0.3
		c-0.2-0.2-0.3-0.5-0.3-0.9v-7h-2.3c-0.4,0-0.6-0.1-0.8-0.2c-0.2-0.1-0.3-0.3-0.3-0.6c0-0.2,0.1-0.4,0.3-0.6
		c0.2-0.1,0.4-0.2,0.8-0.2h6.7c0.4,0,0.6,0.1,0.8,0.2c0.2,0.1,0.3,0.3,0.3,0.6c0,0.2-0.1,0.4-0.3,0.6C45.8,25.6,45.5,25.7,45.2,25.7
		"/>
	<path class="st5" d="M48.1,28.3c0.3-0.3,0.7-0.5,1.2-0.5c0.5,0,0.9,0.2,1.2,0.5c0.3,0.3,0.5,0.8,0.5,1.4h-3.5
		C47.6,29.1,47.8,28.6,48.1,28.3 M52.5,30.5c0.3-0.1,0.4-0.4,0.4-0.9c0-0.5-0.1-1-0.4-1.4c-0.3-0.5-0.7-0.9-1.2-1.1
		c-0.5-0.3-1.2-0.4-2-0.4c-0.6,0-1.1,0.1-1.6,0.3c-0.5,0.2-0.9,0.4-1.2,0.7c-0.3,0.3-0.6,0.7-0.7,1.2c-0.2,0.5-0.3,0.9-0.3,1.5
		c0,1.1,0.3,2,1,2.7c0.7,0.6,1.7,1,2.9,1c0.5,0,1-0.1,1.4-0.2c0.4-0.1,0.8-0.3,1-0.5c0.3-0.2,0.5-0.4,0.6-0.6
		c0.1-0.2,0.2-0.4,0.2-0.6c0-0.2-0.1-0.3-0.2-0.4c-0.1-0.1-0.3-0.1-0.5-0.1c-0.2,0-0.3,0-0.4,0.1c-0.2,0.2-0.4,0.4-0.6,0.5
		c-0.2,0.1-0.3,0.2-0.5,0.3c-0.2,0.1-0.4,0.2-0.6,0.2c-0.2,0-0.4,0.1-0.6,0.1c-0.3,0-0.7-0.1-1-0.2c-0.3-0.2-0.5-0.4-0.7-0.7
		c-0.2-0.3-0.3-0.7-0.3-1.1h3.8C51.8,30.7,52.2,30.6,52.5,30.5"/>
	<path class="st5" d="M61,31.7c0,0.2-0.1,0.5-0.2,0.7c-0.1,0.3-0.4,0.5-0.7,0.7c-0.3,0.2-0.7,0.4-1.1,0.6c-0.4,0.1-1,0.2-1.5,0.2
		c-1.2,0-2.1-0.3-2.8-1c-0.7-0.6-1-1.5-1-2.6c0-0.7,0.2-1.4,0.5-1.9c0.3-0.6,0.8-1,1.3-1.3c0.6-0.3,1.3-0.5,2.1-0.5
		c0.5,0,1,0.1,1.4,0.2c0.4,0.1,0.8,0.3,1.1,0.5c0.3,0.2,0.5,0.4,0.7,0.7c0.2,0.2,0.2,0.5,0.2,0.7c0,0.2-0.1,0.4-0.3,0.5
		c-0.2,0.1-0.4,0.2-0.6,0.2c-0.2,0-0.3,0-0.4-0.1c-0.1-0.1-0.2-0.2-0.4-0.4c-0.2-0.3-0.5-0.6-0.7-0.8c-0.3-0.2-0.6-0.2-1-0.2
		c-0.6,0-1,0.2-1.4,0.6c-0.4,0.4-0.5,1-0.5,1.7c0,0.3,0,0.6,0.1,0.9c0.1,0.3,0.2,0.5,0.4,0.7c0.2,0.2,0.4,0.4,0.6,0.5
		c0.2,0.1,0.5,0.2,0.8,0.2c0.4,0,0.7-0.1,1-0.2c0.3-0.2,0.5-0.4,0.7-0.8c0.1-0.2,0.2-0.4,0.4-0.5c0.1-0.1,0.3-0.2,0.5-0.2
		c0.2,0,0.4,0.1,0.6,0.3C60.9,31.3,61,31.5,61,31.7"/>
	<path class="st5" d="M63.6,25v2.7c0.2-0.3,0.5-0.5,0.7-0.6c0.2-0.1,0.5-0.3,0.8-0.3c0.3-0.1,0.6-0.1,0.9-0.1c0.5,0,0.9,0.1,1.3,0.3
		c0.4,0.2,0.7,0.5,0.9,0.8c0.1,0.2,0.2,0.5,0.3,0.7c0,0.3,0.1,0.6,0.1,0.9v3.4c0,0.4-0.1,0.6-0.3,0.8c-0.2,0.2-0.4,0.3-0.7,0.3
		c-0.6,0-1-0.4-1-1.1v-3c0-0.6-0.1-1-0.3-1.3c-0.2-0.3-0.5-0.5-1-0.5c-0.3,0-0.7,0.1-0.9,0.3c-0.3,0.2-0.5,0.4-0.6,0.7
		c-0.1,0.3-0.2,0.7-0.2,1.4v2.4c0,0.4-0.1,0.6-0.3,0.8c-0.2,0.2-0.4,0.3-0.7,0.3c-0.6,0-1-0.4-1-1.1V25c0-0.4,0.1-0.6,0.3-0.8
		c0.2-0.2,0.4-0.3,0.7-0.3c0.3,0,0.6,0.1,0.7,0.3C63.5,24.4,63.6,24.7,63.6,25"/>
	<path class="st5" d="M71.7,27.6v0.2c0.3-0.4,0.7-0.7,1.1-0.9c0.4-0.2,0.9-0.3,1.4-0.3c0.5,0,1,0.1,1.4,0.3c0.4,0.2,0.7,0.5,0.9,0.9
		c0.1,0.2,0.2,0.5,0.2,0.7c0,0.3,0.1,0.6,0.1,1v3.3c0,0.4-0.1,0.6-0.3,0.8c-0.2,0.2-0.4,0.3-0.7,0.3c-0.3,0-0.5-0.1-0.7-0.3
		c-0.2-0.2-0.3-0.4-0.3-0.8v-3c0-0.6-0.1-1-0.3-1.3c-0.2-0.3-0.5-0.5-1.1-0.5c-0.3,0-0.7,0.1-0.9,0.3c-0.3,0.2-0.5,0.5-0.6,0.8
		c-0.1,0.3-0.1,0.8-0.1,1.5v2.2c0,0.4-0.1,0.6-0.3,0.8c-0.2,0.2-0.4,0.3-0.7,0.3c-0.3,0-0.5-0.1-0.7-0.3c-0.2-0.2-0.3-0.4-0.3-0.8
		v-5.2c0-0.3,0.1-0.6,0.2-0.8c0.2-0.2,0.4-0.3,0.7-0.3c0.2,0,0.3,0,0.5,0.1c0.1,0.1,0.2,0.2,0.3,0.3C71.6,27.2,71.7,27.4,71.7,27.6"
		/>
	<path class="st5" d="M82.9,31.9c-0.3,0.4-0.8,0.6-1.4,0.6c-0.4,0-0.7-0.1-1-0.3c-0.3-0.2-0.5-0.5-0.7-0.8c-0.2-0.4-0.2-0.8-0.2-1.2
		c0-0.5,0.1-0.9,0.2-1.2c0.2-0.4,0.4-0.6,0.7-0.8c0.3-0.2,0.6-0.3,1-0.3c0.6,0,1.1,0.2,1.4,0.6c0.3,0.4,0.5,1,0.5,1.7
		C83.5,31,83.3,31.5,82.9,31.9 M85.2,28.8c-0.2-0.4-0.4-0.8-0.8-1.2c-0.3-0.3-0.8-0.6-1.2-0.7c-0.5-0.2-1-0.3-1.6-0.3
		c-0.6,0-1.1,0.1-1.6,0.3c-0.5,0.2-0.9,0.4-1.2,0.7c-0.3,0.3-0.6,0.7-0.8,1.1c-0.2,0.4-0.3,0.9-0.3,1.5c0,0.5,0.1,1,0.3,1.5
		c0.2,0.4,0.4,0.8,0.8,1.2c0.3,0.3,0.8,0.6,1.2,0.7c0.5,0.2,1,0.3,1.6,0.3c0.6,0,1.1-0.1,1.6-0.3c0.5-0.2,0.9-0.4,1.2-0.7
		c0.3-0.3,0.6-0.7,0.8-1.2c0.2-0.5,0.3-0.9,0.3-1.5C85.4,29.7,85.3,29.2,85.2,28.8"/>
	<path class="st5" d="M86.4,32.8V25c0-0.4,0.1-0.6,0.3-0.8C86.8,24,87,24,87.3,24c0.3,0,0.5,0.1,0.7,0.3c0.2,0.2,0.3,0.5,0.3,0.8
		v7.7c0,0.4-0.1,0.6-0.3,0.8c-0.2,0.2-0.4,0.3-0.7,0.3c-0.3,0-0.5-0.1-0.7-0.3C86.5,33.4,86.4,33.1,86.4,32.8"/>
	<path class="st5" d="M94.5,31.9c-0.3,0.4-0.8,0.6-1.4,0.6c-0.4,0-0.7-0.1-1-0.3c-0.3-0.2-0.5-0.5-0.7-0.8c-0.2-0.4-0.2-0.8-0.2-1.2
		c0-0.5,0.1-0.9,0.2-1.2c0.2-0.4,0.4-0.6,0.7-0.8c0.3-0.2,0.6-0.3,1-0.3c0.6,0,1.1,0.2,1.4,0.6c0.3,0.4,0.5,1,0.5,1.7
		C95.1,31,94.9,31.5,94.5,31.9 M96.8,28.8c-0.2-0.4-0.4-0.8-0.8-1.2c-0.3-0.3-0.8-0.6-1.2-0.7c-0.5-0.2-1-0.3-1.6-0.3
		c-0.6,0-1.1,0.1-1.6,0.3c-0.5,0.2-0.9,0.4-1.2,0.7c-0.3,0.3-0.6,0.7-0.8,1.1c-0.2,0.4-0.3,0.9-0.3,1.5c0,0.5,0.1,1,0.3,1.5
		c0.2,0.4,0.4,0.8,0.8,1.2c0.3,0.3,0.8,0.6,1.2,0.7c0.5,0.2,1,0.3,1.6,0.3c0.6,0,1.1-0.1,1.6-0.3c0.5-0.2,0.9-0.4,1.2-0.7
		c0.3-0.3,0.6-0.7,0.8-1.2c0.2-0.5,0.3-0.9,0.3-1.5C97,29.7,96.9,29.2,96.8,28.8"/>
	<path class="st5" d="M100,28.5c0.3-0.4,0.8-0.6,1.3-0.6c0.6,0,1,0.2,1.4,0.6c0.3,0.4,0.5,1,0.5,1.7c0,0.5-0.1,0.8-0.3,1.2
		c-0.2,0.3-0.4,0.6-0.7,0.7c-0.3,0.2-0.6,0.2-0.9,0.2c-0.5,0-1-0.2-1.3-0.6c-0.3-0.4-0.5-0.9-0.5-1.6C99.5,29.5,99.7,28.9,100,28.5
		 M104.9,26.9c-0.1-0.2-0.4-0.3-0.7-0.3c-0.3,0-0.5,0.1-0.6,0.3c-0.2,0.2-0.2,0.4-0.2,0.7v0.2c-0.3-0.4-0.7-0.7-1.1-0.9
		c-0.4-0.2-0.9-0.3-1.4-0.3c-0.5,0-0.9,0.1-1.3,0.2c-0.4,0.1-0.7,0.4-1,0.7c-0.3,0.3-0.5,0.7-0.7,1.1c-0.2,0.4-0.2,0.9-0.2,1.4
		c0,0.7,0.1,1.3,0.4,1.9c0.3,0.5,0.6,1,1.1,1.3c0.5,0.3,1.1,0.5,1.7,0.5c0.5,0,1-0.1,1.4-0.3c0.4-0.2,0.7-0.5,1-0.9c0,0.6,0,1,0,1.3
		c0,0.3-0.1,0.5-0.2,0.7c-0.1,0.2-0.3,0.4-0.6,0.5c-0.3,0.1-0.7,0.2-1.2,0.2c-0.2,0-0.5,0-0.7-0.1c-0.2,0-0.3-0.1-0.5-0.2
		c-0.1-0.1-0.3-0.2-0.4-0.3c-0.1-0.1-0.2-0.2-0.3-0.4c-0.2-0.2-0.5-0.3-0.8-0.3c-0.2,0-0.4,0.1-0.6,0.2c-0.2,0.1-0.2,0.3-0.2,0.5
		c0,0.3,0.1,0.6,0.4,0.8c0.3,0.3,0.7,0.5,1.2,0.7c0.5,0.2,1.1,0.3,1.8,0.3c0.7,0,1.3-0.1,1.8-0.2c0.5-0.1,0.9-0.3,1.2-0.6
		c0.3-0.3,0.5-0.6,0.7-1.1c0.1-0.4,0.2-0.9,0.2-1.5v-5.2C105.1,27.5,105,27.2,104.9,26.9"/>
	<path class="st5" d="M108.5,27.6v5.2c0,0.4-0.1,0.6-0.3,0.8c-0.2,0.2-0.4,0.3-0.7,0.3c-0.3,0-0.5-0.1-0.7-0.3
		c-0.2-0.2-0.3-0.4-0.3-0.8v-5.1c0-0.4,0.1-0.6,0.3-0.8c0.2-0.2,0.4-0.3,0.7-0.3c0.3,0,0.5,0.1,0.7,0.3
		C108.4,27.1,108.5,27.3,108.5,27.6 M107.5,25.8c-0.3,0-0.5-0.1-0.7-0.2c-0.2-0.1-0.3-0.4-0.3-0.6c0-0.3,0.1-0.5,0.3-0.6
		c0.2-0.2,0.4-0.2,0.7-0.2c0.3,0,0.5,0.1,0.7,0.2c0.2,0.1,0.3,0.4,0.3,0.6c0,0.3-0.1,0.5-0.3,0.6C108,25.7,107.8,25.8,107.5,25.8"/>
	<path class="st5" d="M112.1,28.3c0.3-0.3,0.7-0.5,1.2-0.5c0.5,0,0.9,0.2,1.2,0.5c0.3,0.3,0.5,0.8,0.5,1.4h-3.5
		C111.6,29.1,111.8,28.6,112.1,28.3 M116.5,30.5c0.3-0.1,0.4-0.4,0.4-0.9c0-0.5-0.1-1-0.4-1.4c-0.3-0.5-0.7-0.9-1.2-1.1
		c-0.5-0.3-1.2-0.4-2-0.4c-0.6,0-1.1,0.1-1.6,0.3c-0.5,0.2-0.9,0.4-1.2,0.7c-0.3,0.3-0.6,0.7-0.7,1.2c-0.2,0.5-0.3,0.9-0.3,1.5
		c0,1.1,0.3,2,1,2.7c0.7,0.6,1.7,1,2.9,1c0.5,0,1-0.1,1.4-0.2c0.4-0.1,0.8-0.3,1-0.5c0.3-0.2,0.5-0.4,0.6-0.6
		c0.1-0.2,0.2-0.4,0.2-0.6c0-0.2-0.1-0.3-0.2-0.4c-0.1-0.1-0.3-0.1-0.5-0.1c-0.2,0-0.3,0-0.4,0.1c-0.2,0.2-0.4,0.4-0.6,0.5
		c-0.2,0.1-0.3,0.2-0.5,0.3c-0.2,0.1-0.4,0.2-0.6,0.2c-0.2,0-0.4,0.1-0.6,0.1c-0.3,0-0.7-0.1-1-0.2c-0.3-0.2-0.5-0.4-0.7-0.7
		c-0.2-0.3-0.3-0.7-0.3-1.1h3.8C115.8,30.7,116.2,30.6,116.5,30.5"/>
	<path class="st5" d="M124.2,31.5c0,0.5-0.1,0.9-0.4,1.3c-0.3,0.4-0.6,0.6-1.2,0.8c-0.5,0.2-1.1,0.3-1.9,0.3c-0.7,0-1.3-0.1-1.8-0.3
		c-0.5-0.2-0.9-0.4-1.1-0.7c-0.2-0.3-0.4-0.6-0.4-0.9c0-0.2,0.1-0.4,0.2-0.5c0.2-0.1,0.3-0.2,0.6-0.2c0.2,0,0.4,0,0.5,0.1
		c0.1,0.1,0.2,0.2,0.3,0.4c0.2,0.3,0.4,0.6,0.7,0.7c0.3,0.2,0.7,0.2,1.1,0.2c0.4,0,0.7-0.1,1-0.2c0.3-0.2,0.4-0.3,0.4-0.5
		c0-0.3-0.1-0.5-0.4-0.7c-0.3-0.1-0.7-0.3-1.3-0.4c-0.7-0.2-1.2-0.3-1.6-0.5c-0.4-0.2-0.8-0.4-1-0.7c-0.3-0.3-0.4-0.6-0.4-1
		c0-0.4,0.1-0.7,0.3-1c0.2-0.3,0.6-0.6,1-0.8c0.5-0.2,1-0.3,1.6-0.3c0.5,0,1,0.1,1.4,0.1c0.4,0.1,0.7,0.2,1,0.4
		c0.3,0.2,0.5,0.3,0.6,0.5c0.1,0.2,0.2,0.4,0.2,0.6c0,0.2-0.1,0.4-0.2,0.5c-0.1,0.1-0.4,0.2-0.6,0.2c-0.2,0-0.4-0.1-0.5-0.2
		c-0.1-0.1-0.3-0.3-0.5-0.5c-0.1-0.2-0.3-0.3-0.5-0.4c-0.2-0.1-0.5-0.2-0.8-0.2c-0.3,0-0.6,0.1-0.9,0.2c-0.2,0.1-0.3,0.3-0.3,0.5
		c0,0.2,0.1,0.3,0.3,0.5c0.2,0.1,0.4,0.2,0.7,0.3c0.3,0.1,0.7,0.2,1.2,0.3c0.6,0.1,1.1,0.3,1.5,0.5c0.4,0.2,0.7,0.4,0.9,0.7
		C124.1,30.9,124.2,31.2,124.2,31.5"/>
	<polygon points="125.9,33.4 125.9,31.8 125.4,31.8 125.4,31.5 126.8,31.5 126.8,31.8 126.3,31.8 126.3,33.4 	"/>
	<polygon points="127.1,33.4 127.1,31.5 127.7,31.5 128,32.8 128.3,31.5 128.9,31.5 128.9,33.4 128.5,33.4 128.5,31.9 128.2,33.4 
		127.8,33.4 127.4,31.9 127.4,33.4 	"/>
</g>
</svg>
