<?xml version="1.0" encoding="utf-8"?>
<!-- Generator: Adobe Illustrator 19.2.0, SVG Export Plug-In . SVG Version: 6.00 Build 0)  -->
<svg version="1.1" id="Layer_1" xmlns="http://www.w3.org/2000/svg" xmlns:xlink="http://www.w3.org/1999/xlink" x="0px" y="0px"
	 width="291.5px" height="97.9px" viewBox="0 0 291.5 97.9" style="enable-background:new 0 0 291.5 97.9;" xml:space="preserve">
<style type="text/css">
	.st0{fill:#EC008C;stroke:#000000;}
	.st1{stroke:#000000;stroke-width:0.25;}
	.st2{fill:none;stroke:#000000;stroke-width:1.5;}
	.st3{fill:#FFFFFF;}
	.st4{fill:#EC008C;stroke:#FFFFFF;}
</style>
<g>
	<g>
		<path class="st3" d="M30.5,72.8c0-0.8,0.1-1.6,0.5-2.3c0.3-0.7,0.8-1.5,1.4-2.3H33c-0.5,0.8-0.9,1.6-1.1,2.4
			c-0.2,0.8-0.4,1.5-0.4,2.3c0,0.8,0.1,1.6,0.4,2.3c0.2,0.8,0.6,1.5,1.1,2.4h-0.7c-0.7-0.8-1.1-1.6-1.4-2.3
			C30.6,74.4,30.5,73.6,30.5,72.8z"/>
		<path class="st3" d="M36.7,68.3h0.6H38l2.8,7.2h-0.6h-0.6l-0.8-2.1h-3.2l-0.8,2.1h-0.5h-0.6L36.7,68.3 M36,72.5h2.5l-1.2-3.2h0
			L36,72.5z"/>
		<path class="st3" d="M41.9,70.2h0.5h0.5V71l0.2-0.3c0.4-0.4,0.9-0.7,1.6-0.7c0.6,0,1.1,0.2,1.5,0.5c0.3,0.3,0.5,0.8,0.5,1.3v3.6
			h-0.5h-0.5v-3.3c0-0.5-0.1-0.8-0.3-1c-0.2-0.2-0.5-0.3-0.9-0.3c-0.5,0-0.8,0.2-1.1,0.5c-0.3,0.3-0.4,0.8-0.4,1.3v2.8h-0.5h-0.5
			V70.2z"/>
		<polygon class="st3" points="51.7,75.4 51.7,68.3 57.5,68.3 57.5,68.7 57.5,69.1 52.8,69.1 52.8,71.3 57.1,71.3 57.1,71.7 
			57.1,72.2 52.8,72.2 52.8,74.6 57.6,74.6 57.6,75 57.6,75.4 		"/>
		<path class="st3" d="M59.1,70.2h0.5H60V71l0.2-0.3c0.4-0.4,0.9-0.7,1.6-0.7c0.6,0,1.1,0.2,1.5,0.5c0.3,0.3,0.5,0.8,0.5,1.3v3.6
			h-0.5h-0.5v-3.3c0-0.5-0.1-0.8-0.3-1c-0.2-0.2-0.5-0.3-0.9-0.3c-0.5,0-0.8,0.2-1.1,0.5c-0.3,0.3-0.4,0.8-0.4,1.3v2.8h-0.5h-0.5
			V70.2z"/>
		<path class="st3" d="M67.5,75.4c-0.3,0-0.6,0.1-0.7,0.1c-0.4,0-0.7-0.1-0.9-0.3c-0.2-0.2-0.3-0.5-0.3-0.9v-3.5h-0.8v-0.7h0.8v-1.5
			h1v1.5h0.9v0.7h-0.9v3.5c0,0.1,0.1,0.2,0.2,0.3c0.1,0.1,0.2,0.1,0.4,0.1h0.3V75.4z"/>
		<path class="st3" d="M71,75.6c-0.8,0-1.5-0.2-1.9-0.7c-0.5-0.5-0.7-1.1-0.7-1.9c0-0.9,0.2-1.6,0.7-2.1c0.5-0.5,1.2-0.8,2-0.8
			c0.8,0,1.4,0.3,1.8,0.8c0.5,0.5,0.7,1.2,0.7,2l0,0.3h-4.2c0,0.5,0.2,0.9,0.4,1.2c0.3,0.3,0.7,0.5,1.3,0.5c0.4,0,0.7-0.1,1-0.3
			c0.3-0.2,0.4-0.4,0.5-0.7h1c-0.1,0.6-0.4,1-0.9,1.3C72.3,75.4,71.7,75.6,71,75.6 M72.6,72.4c0-0.5-0.2-0.9-0.4-1.1
			c-0.3-0.3-0.6-0.4-1.2-0.4c-0.5,0-0.9,0.2-1.2,0.5c-0.2,0.3-0.4,0.6-0.4,1.1H72.6z"/>
		<path class="st3" d="M75.2,70.2h0.5h0.5v0.9c0.1-0.1,0.2-0.3,0.3-0.4c0.4-0.4,0.8-0.7,1.3-0.7c0.1,0,0.2,0,0.3,0V71l-0.2,0
			c-0.5,0-0.9,0.1-1.2,0.4c-0.3,0.3-0.4,0.7-0.4,1.2v2.8h-0.5h-0.5V70.2z"/>
		<path class="st3" d="M78.8,70.2h0.5h0.5V71l0-0.1c0.4-0.6,1-0.8,1.6-0.8c0.8,0,1.3,0.2,1.8,0.7c0.4,0.5,0.7,1.1,0.7,1.9
			c0,0.9-0.2,1.6-0.7,2.1c-0.4,0.5-1.1,0.8-1.8,0.8c-0.6,0-1.2-0.2-1.5-0.7l0,0v2.6h-0.5h-0.5V70.2 M81.3,74.8
			c0.5,0,0.9-0.2,1.1-0.5c0.3-0.3,0.4-0.9,0.4-1.5c0-0.7-0.1-1.1-0.4-1.5c-0.2-0.3-0.6-0.5-1.2-0.5c-0.5,0-0.9,0.2-1.2,0.5
			c-0.2,0.4-0.4,0.9-0.4,1.7c0,0.6,0.1,1,0.4,1.3C80.5,74.7,80.8,74.8,81.3,74.8z"/>
		<path class="st3" d="M85.4,70.2h0.5h0.5v0.9c0.1-0.1,0.2-0.3,0.3-0.4c0.4-0.4,0.8-0.7,1.3-0.7c0.1,0,0.2,0,0.3,0V71L88,71
			c-0.5,0-0.9,0.1-1.2,0.4c-0.3,0.3-0.4,0.7-0.4,1.2v2.8h-0.5h-0.5V70.2z"/>
		<path class="st3" d="M89.2,68.3h1v1h-1V68.3 M89.2,70.2h0.5h0.5v5.2h-0.5h-0.5V70.2z"/>
		<path class="st3" d="M95.1,71.7c0-0.3-0.2-0.5-0.4-0.7c-0.2-0.2-0.5-0.2-0.9-0.2c-0.4,0-0.7,0.1-0.9,0.2c-0.2,0.1-0.3,0.3-0.3,0.6
			c0,0.2,0.1,0.3,0.2,0.4c0.1,0.1,0.4,0.2,0.9,0.3l1,0.2c0.6,0.1,1,0.3,1.2,0.5c0.2,0.2,0.4,0.5,0.4,0.9c0,0.5-0.2,0.9-0.6,1.2
			c-0.4,0.3-1,0.5-1.7,0.5c-0.8,0-1.4-0.1-1.8-0.4c-0.4-0.3-0.6-0.7-0.7-1.4h0.9c0,0.4,0.2,0.6,0.4,0.8c0.2,0.2,0.6,0.2,1.1,0.2
			c0.4,0,0.8-0.1,1-0.2c0.2-0.2,0.3-0.4,0.3-0.7c0-0.2-0.1-0.3-0.2-0.4c-0.1-0.1-0.4-0.2-0.9-0.3l-1-0.2c-0.5-0.1-0.9-0.3-1.2-0.5
			c-0.2-0.2-0.3-0.5-0.3-0.9c0-0.5,0.2-0.9,0.6-1.2c0.4-0.3,0.9-0.4,1.6-0.4c0.7,0,1.2,0.1,1.6,0.4c0.4,0.3,0.6,0.7,0.6,1.2l0,0
			H95.1z"/>
		<path class="st3" d="M99.9,75.6c-0.8,0-1.5-0.2-1.9-0.7c-0.5-0.5-0.7-1.1-0.7-1.9c0-0.9,0.2-1.6,0.7-2.1c0.5-0.5,1.2-0.8,2-0.8
			c0.8,0,1.4,0.3,1.8,0.8c0.5,0.5,0.7,1.2,0.7,2l0,0.3h-4.2c0,0.5,0.2,0.9,0.4,1.2c0.3,0.3,0.7,0.5,1.3,0.5c0.4,0,0.7-0.1,1-0.3
			c0.3-0.2,0.4-0.4,0.5-0.7h1c-0.1,0.6-0.4,1-0.9,1.3C101.1,75.4,100.5,75.6,99.9,75.6 M101.5,72.4c0-0.5-0.2-0.9-0.4-1.1
			c-0.3-0.3-0.6-0.4-1.2-0.4c-0.5,0-0.9,0.2-1.2,0.5c-0.2,0.3-0.4,0.6-0.4,1.1H101.5z"/>
		<path class="st3" d="M107.6,74.8c-0.5-0.5-0.7-1.2-0.7-2c0-0.8,0.2-1.5,0.7-2c0.5-0.5,1.1-0.8,1.9-0.8c0.8,0,1.4,0.3,1.9,0.8
			c0.5,0.5,0.7,1.2,0.7,2c0,0.8-0.2,1.5-0.7,2c-0.5,0.5-1.1,0.8-1.9,0.8C108.7,75.6,108,75.3,107.6,74.8 M110.7,74.3
			c0.3-0.4,0.5-0.8,0.5-1.5c0-0.6-0.2-1.1-0.5-1.5c-0.3-0.4-0.7-0.5-1.2-0.5c-0.5,0-0.9,0.2-1.2,0.5c-0.3,0.4-0.4,0.9-0.4,1.5
			c0,0.6,0.2,1.1,0.4,1.5c0.3,0.4,0.7,0.5,1.2,0.5C110,74.8,110.4,74.6,110.7,74.3z"/>
		<path class="st3" d="M114.7,70.9v4.5h-0.5h-0.5v-4.5h-0.8v-0.7h0.8v-0.9c0-0.4,0.1-0.7,0.4-0.9c0.3-0.2,0.6-0.3,1.1-0.3l0.4,0V69
			l-0.4,0c-0.2,0-0.3,0.1-0.4,0.2c-0.1,0.1-0.2,0.3-0.2,0.5v0.6h1v0.7H114.7z"/>
		<path class="st3" d="M126.4,72.8c0,0.9-0.3,1.6-0.8,2.1c-0.5,0.5-1.3,0.7-2.3,0.7c-1,0-1.8-0.2-2.3-0.7c-0.5-0.5-0.8-1.2-0.8-2.1
			v-4.5h0.5h0.5v4.5c0,0.7,0.2,1.2,0.5,1.5c0.3,0.3,0.9,0.5,1.5,0.5c0.7,0,1.2-0.2,1.5-0.5c0.3-0.3,0.5-0.9,0.5-1.5v-4.5h0.5h0.5
			V72.8z"/>
		<path class="st3" d="M130.3,75.4c-0.3,0-0.6,0.1-0.7,0.1c-0.4,0-0.7-0.1-0.9-0.3c-0.2-0.2-0.3-0.5-0.3-0.9v-3.5h-0.8v-0.7h0.8
			v-1.5h1v1.5h0.9v0.7h-0.9v3.5c0,0.1,0.1,0.2,0.2,0.3c0.1,0.1,0.2,0.1,0.4,0.1h0.3V75.4z"/>
		<path class="st3" d="M133.6,75.4c-0.3,0-0.6,0.1-0.7,0.1c-0.4,0-0.7-0.1-0.9-0.3c-0.2-0.2-0.3-0.5-0.3-0.9v-3.5h-0.8v-0.7h0.8
			v-1.5h1v1.5h0.9v0.7h-0.9v3.5c0,0.1,0.1,0.2,0.2,0.3c0.1,0.1,0.2,0.1,0.4,0.1h0.3V75.4z"/>
		<path class="st3" d="M136.3,75.6c-0.6,0-1-0.1-1.3-0.4c-0.3-0.3-0.5-0.6-0.5-1.1c0-0.5,0.2-0.8,0.5-1.1c0.3-0.3,0.8-0.4,1.4-0.5
			l1.3-0.2c0.1,0,0.2,0,0.3,0c0.1,0,0.2-0.1,0.3-0.2c0.1-0.1,0.1-0.2,0.1-0.3v0c0-0.3-0.1-0.5-0.3-0.7c-0.2-0.2-0.6-0.2-1-0.2
			c-0.4,0-0.7,0.1-0.9,0.2c-0.2,0.2-0.4,0.4-0.4,0.7h-0.9c0-0.6,0.3-1,0.7-1.3c0.4-0.3,1-0.4,1.7-0.4c0.7,0,1.2,0.1,1.6,0.4
			c0.4,0.3,0.5,0.7,0.5,1.2v2.9c0,0.1,0,0.2,0.1,0.2c0.1,0.1,0.1,0.1,0.2,0.1c0,0,0.1,0,0.1,0c0.1,0,0.1,0,0.2,0v0.6
			c-0.1,0-0.2,0.1-0.3,0.1c-0.1,0-0.2,0-0.3,0c-0.4,0-0.6-0.1-0.8-0.3c-0.1-0.1-0.2-0.3-0.2-0.5c-0.1,0.1-0.2,0.2-0.3,0.2
			C137.6,75.4,137,75.6,136.3,75.6 M138.3,73.4v-0.6c-0.2,0.1-0.4,0.1-0.6,0.2l-0.9,0.1c-0.5,0.1-0.8,0.2-1,0.3
			c-0.2,0.1-0.3,0.3-0.3,0.6c0,0.3,0.1,0.5,0.3,0.7c0.2,0.2,0.4,0.2,0.7,0.2c0.5,0,0.9-0.1,1.3-0.4c0.2-0.2,0.4-0.4,0.5-0.6
			c0,0,0-0.1,0-0.2C138.3,73.6,138.3,73.5,138.3,73.4z"/>
		<path class="st3" d="M141.2,70.2h0.5h0.5v0.9c0.1-0.1,0.2-0.3,0.3-0.4c0.4-0.4,0.8-0.7,1.3-0.7c0.1,0,0.2,0,0.3,0V71l-0.2,0
			c-0.5,0-0.9,0.1-1.2,0.4c-0.3,0.3-0.4,0.7-0.4,1.2v2.8h-0.5h-0.5V70.2z"/>
		<path class="st3" d="M146.5,75.6c-0.6,0-1-0.1-1.3-0.4c-0.3-0.3-0.5-0.6-0.5-1.1c0-0.5,0.2-0.8,0.5-1.1c0.3-0.3,0.8-0.4,1.4-0.5
			l1.3-0.2c0.1,0,0.2,0,0.3,0c0.1,0,0.2-0.1,0.3-0.2c0.1-0.1,0.1-0.2,0.1-0.3v0c0-0.3-0.1-0.5-0.3-0.7c-0.2-0.2-0.6-0.2-1-0.2
			c-0.4,0-0.7,0.1-0.9,0.2c-0.2,0.2-0.4,0.4-0.4,0.7H145c0-0.6,0.3-1,0.7-1.3c0.4-0.3,1-0.4,1.7-0.4c0.7,0,1.2,0.1,1.6,0.4
			c0.4,0.3,0.5,0.7,0.5,1.2v2.9c0,0.1,0,0.2,0.1,0.2c0.1,0.1,0.1,0.1,0.2,0.1c0,0,0.1,0,0.1,0c0.1,0,0.1,0,0.2,0v0.6
			c-0.1,0-0.2,0.1-0.3,0.1c-0.1,0-0.2,0-0.3,0c-0.4,0-0.6-0.1-0.8-0.3c-0.1-0.1-0.2-0.3-0.2-0.5c-0.1,0.1-0.2,0.2-0.2,0.2
			C147.8,75.4,147.2,75.6,146.5,75.6 M148.5,73.4v-0.6c-0.2,0.1-0.4,0.1-0.6,0.2l-0.9,0.1c-0.5,0.1-0.8,0.2-1,0.3
			c-0.2,0.1-0.3,0.3-0.3,0.6c0,0.3,0.1,0.5,0.3,0.7c0.2,0.2,0.4,0.2,0.7,0.2c0.5,0,0.9-0.1,1.3-0.4c0.2-0.2,0.4-0.4,0.5-0.6
			c0,0,0-0.1,0-0.2C148.5,73.6,148.5,73.5,148.5,73.4z"/>
		<path class="st3" d="M158.1,75.6c-1.1,0-2-0.3-2.7-1c-0.7-0.7-1-1.6-1-2.7c0-1.1,0.3-2,1-2.7c0.7-0.7,1.6-1,2.7-1
			c0.9,0,1.6,0.2,2.2,0.7c0.6,0.4,1,1,1.1,1.7h-1c-0.1-0.5-0.4-0.8-0.8-1.1c-0.4-0.3-0.9-0.4-1.6-0.4c-0.8,0-1.4,0.3-1.9,0.8
			c-0.5,0.5-0.7,1.3-0.7,2.1c0,0.9,0.2,1.7,0.7,2.2c0.5,0.5,1.1,0.8,2,0.8c0.8,0,1.5-0.3,2-0.8c0.1-0.1,0.2-0.2,0.2-0.3
			c0.1-0.1,0.2-0.3,0.2-0.5c0.1-0.2,0.1-0.4,0.1-0.6v-0.1h-2.5v-0.8h3.5v3.8H161l-0.3-0.9l-0.1,0.1C160,75.3,159.1,75.6,158.1,75.6z
			"/>
		<path class="st3" d="M163.5,70.2h0.5h0.5v0.9c0.1-0.1,0.2-0.3,0.3-0.4c0.4-0.4,0.8-0.7,1.4-0.7c0.1,0,0.2,0,0.3,0V71l-0.2,0
			c-0.5,0-0.9,0.1-1.2,0.4c-0.3,0.3-0.4,0.7-0.4,1.2v2.8H164h-0.5V70.2z"/>
		<path class="st3" d="M167.7,74.8c-0.5-0.5-0.7-1.2-0.7-2c0-0.8,0.2-1.5,0.7-2c0.5-0.5,1.1-0.8,1.9-0.8c0.8,0,1.5,0.3,1.9,0.8
			c0.5,0.5,0.7,1.2,0.7,2c0,0.8-0.2,1.5-0.7,2c-0.5,0.5-1.1,0.8-1.9,0.8C168.8,75.6,168.2,75.3,167.7,74.8 M170.8,74.3
			c0.3-0.4,0.4-0.8,0.4-1.5c0-0.6-0.1-1.1-0.4-1.5c-0.3-0.4-0.7-0.5-1.2-0.5c-0.5,0-0.9,0.2-1.2,0.5c-0.3,0.4-0.4,0.9-0.4,1.5
			c0,0.6,0.2,1.1,0.4,1.5c0.3,0.4,0.7,0.5,1.2,0.5C170.1,74.8,170.5,74.6,170.8,74.3z"/>
		<path class="st3" d="M174.6,73.6c0,0.4,0.1,0.8,0.3,0.9c0.2,0.2,0.5,0.3,0.9,0.3c0.5,0,0.8-0.2,1.1-0.5c0.3-0.3,0.4-0.8,0.4-1.3
			v-2.8h0.5h0.5v5.2h-0.5h-0.5v-0.8c-0.1,0.1-0.1,0.2-0.2,0.3c-0.4,0.4-0.9,0.7-1.5,0.7c-0.6,0-1.1-0.1-1.5-0.4
			c-0.3-0.3-0.5-0.7-0.5-1.3v-3.6h0.5h0.5V73.6z"/>
		<path class="st3" d="M179.9,70.2h0.5h0.5V71l0-0.1c0.4-0.6,1-0.8,1.6-0.8c0.8,0,1.4,0.2,1.8,0.7c0.4,0.5,0.7,1.1,0.7,1.9
			c0,0.9-0.2,1.6-0.7,2.1c-0.4,0.5-1.1,0.8-1.8,0.8c-0.6,0-1.2-0.2-1.5-0.7l0,0v2.6h-0.5h-0.5V70.2 M182.4,74.8
			c0.5,0,0.9-0.2,1.1-0.5c0.3-0.3,0.4-0.9,0.4-1.5c0-0.7-0.1-1.1-0.4-1.5c-0.3-0.3-0.6-0.5-1.2-0.5c-0.5,0-0.9,0.2-1.2,0.5
			c-0.2,0.4-0.4,0.9-0.4,1.7c0,0.6,0.1,1,0.4,1.3C181.5,74.7,181.9,74.8,182.4,74.8z"/>
		<path class="st3" d="M190,74.8c-0.5-0.5-0.7-1.2-0.7-2c0-0.8,0.2-1.5,0.7-2c0.5-0.5,1.1-0.8,1.9-0.8c0.8,0,1.5,0.3,1.9,0.8
			c0.5,0.5,0.7,1.2,0.7,2c0,0.8-0.2,1.5-0.7,2c-0.5,0.5-1.1,0.8-1.9,0.8C191.1,75.6,190.5,75.3,190,74.8 M193.1,74.3
			c0.3-0.4,0.4-0.8,0.4-1.5c0-0.6-0.2-1.1-0.4-1.5c-0.3-0.4-0.7-0.5-1.2-0.5c-0.5,0-0.9,0.2-1.2,0.5c-0.3,0.4-0.4,0.9-0.4,1.5
			c0,0.6,0.1,1.1,0.4,1.5c0.3,0.4,0.7,0.5,1.2,0.5C192.4,74.8,192.8,74.6,193.1,74.3z"/>
		<path class="st3" d="M197.1,70.9v4.5h-0.5h-0.5v-4.5h-0.8v-0.7h0.8v-0.9c0-0.4,0.1-0.7,0.4-0.9c0.3-0.2,0.6-0.3,1.1-0.3l0.4,0V69
			l-0.4,0c-0.2,0-0.3,0.1-0.4,0.2c-0.1,0.1-0.2,0.3-0.2,0.5v0.6h1v0.7H197.1z"/>
		<path class="st3" d="M209.2,72.8c-0.1,0.9-0.5,1.6-1.1,2.1c-0.6,0.5-1.4,0.8-2.3,0.8c-1.1,0-2-0.3-2.6-1c-0.7-0.7-1-1.6-1-2.8
			c0-1.2,0.3-2.1,1-2.8c0.7-0.7,1.6-1,2.7-1c0.9,0,1.6,0.2,2.2,0.6c0.6,0.4,0.9,1,1,1.7h-1c-0.1-0.5-0.3-0.8-0.7-1.1
			c-0.4-0.3-0.9-0.4-1.5-0.4c-0.8,0-1.4,0.3-1.9,0.8c-0.5,0.5-0.7,1.2-0.7,2.1c0,1,0.2,1.7,0.7,2.2c0.4,0.5,1.1,0.7,1.9,0.7
			c0.6,0,1.1-0.2,1.5-0.5c0.4-0.3,0.7-0.8,0.8-1.5H209.2z"/>
		<path class="st3" d="M211,74.8c-0.5-0.5-0.7-1.2-0.7-2c0-0.8,0.2-1.5,0.7-2c0.5-0.5,1.1-0.8,1.9-0.8c0.8,0,1.4,0.3,1.9,0.8
			c0.5,0.5,0.7,1.2,0.7,2c0,0.8-0.2,1.5-0.7,2c-0.5,0.5-1.1,0.8-1.9,0.8C212.2,75.6,211.5,75.3,211,74.8 M214.2,74.3
			c0.3-0.4,0.5-0.8,0.5-1.5c0-0.6-0.2-1.1-0.5-1.5c-0.3-0.4-0.7-0.5-1.2-0.5c-0.5,0-0.9,0.2-1.2,0.5c-0.3,0.4-0.4,0.9-0.4,1.5
			c0,0.6,0.1,1.1,0.4,1.5c0.3,0.4,0.7,0.5,1.2,0.5C213.5,74.8,213.9,74.6,214.2,74.3z"/>
		<path class="st3" d="M217,70.2h0.5h0.5V71l0.2-0.2c0.4-0.5,1-0.7,1.6-0.7c0.5,0,0.9,0.1,1.2,0.4c0.1,0.1,0.2,0.3,0.3,0.4l0.2-0.2
			c0.4-0.4,0.9-0.7,1.5-0.7c0.6,0,1.1,0.1,1.4,0.4c0.3,0.3,0.5,0.7,0.5,1.3v3.7h-0.5h-0.5v-3.4c0-0.4-0.1-0.7-0.3-0.9
			c-0.2-0.2-0.4-0.3-0.8-0.3c-0.4,0-0.8,0.2-1,0.4c-0.2,0.3-0.4,0.7-0.4,1.2v2.9h-0.5h-0.5v-3.6c0-0.3-0.1-0.6-0.2-0.7
			c-0.2-0.2-0.4-0.3-0.7-0.3c-0.4,0-0.8,0.2-1.1,0.5c-0.3,0.3-0.4,0.8-0.4,1.3v2.8h-0.5H217V70.2z"/>
		<path class="st3" d="M226.3,70.2h0.5h0.5V71l0-0.1c0.4-0.6,1-0.8,1.6-0.8c0.8,0,1.3,0.2,1.8,0.7c0.4,0.5,0.7,1.1,0.7,1.9
			c0,0.9-0.2,1.6-0.7,2.1c-0.4,0.5-1.1,0.8-1.8,0.8c-0.6,0-1.2-0.2-1.5-0.7l0,0v2.6h-0.5h-0.5V70.2 M228.8,74.8
			c0.5,0,0.9-0.2,1.1-0.5c0.3-0.3,0.4-0.9,0.4-1.5c0-0.7-0.1-1.1-0.4-1.5c-0.3-0.3-0.6-0.5-1.2-0.5c-0.5,0-0.9,0.2-1.2,0.5
			c-0.2,0.4-0.4,0.9-0.4,1.7c0,0.6,0.1,1,0.4,1.3C227.9,74.7,228.3,74.8,228.8,74.8z"/>
		<path class="st3" d="M234.2,75.6c-0.6,0-1-0.1-1.3-0.4c-0.3-0.3-0.5-0.6-0.5-1.1c0-0.5,0.2-0.8,0.5-1.1c0.3-0.3,0.8-0.4,1.4-0.5
			l1.3-0.2c0.1,0,0.2,0,0.3,0c0.1,0,0.2-0.1,0.3-0.2c0.1-0.1,0.1-0.2,0.1-0.3v0c0-0.3-0.1-0.5-0.3-0.7c-0.2-0.2-0.6-0.2-1-0.2
			c-0.4,0-0.7,0.1-0.9,0.2c-0.2,0.2-0.4,0.4-0.4,0.7h-0.9c0-0.6,0.3-1,0.7-1.3c0.4-0.3,1-0.4,1.7-0.4c0.7,0,1.2,0.1,1.6,0.4
			c0.4,0.3,0.5,0.7,0.5,1.2v2.9c0,0.1,0,0.2,0.1,0.2c0.1,0.1,0.1,0.1,0.2,0.1c0,0,0.1,0,0.1,0c0.1,0,0.1,0,0.2,0v0.6
			c-0.1,0-0.2,0.1-0.3,0.1c-0.1,0-0.2,0-0.3,0c-0.4,0-0.6-0.1-0.8-0.3c-0.1-0.1-0.2-0.3-0.2-0.5c-0.1,0.1-0.2,0.2-0.3,0.2
			C235.5,75.4,234.9,75.6,234.2,75.6 M236.2,73.4v-0.6c-0.2,0.1-0.4,0.1-0.6,0.2l-0.9,0.1c-0.5,0.1-0.8,0.2-1,0.3
			c-0.2,0.1-0.3,0.3-0.3,0.6c0,0.3,0.1,0.5,0.3,0.7c0.2,0.2,0.4,0.2,0.7,0.2c0.5,0,0.9-0.1,1.3-0.4c0.2-0.2,0.4-0.4,0.5-0.6
			c0,0,0-0.1,0-0.2C236.2,73.6,236.2,73.5,236.2,73.4z"/>
		<path class="st3" d="M239,70.2h0.5h0.5V71l0.2-0.3c0.4-0.4,0.9-0.7,1.6-0.7c0.6,0,1.1,0.2,1.5,0.5c0.3,0.3,0.5,0.8,0.5,1.3v3.6
			h-0.5h-0.5v-3.3c0-0.5-0.1-0.8-0.3-1c-0.2-0.2-0.5-0.3-1-0.3c-0.5,0-0.8,0.2-1.1,0.5c-0.3,0.3-0.4,0.8-0.4,1.3v2.8h-0.5H239V70.2z
			"/>
		<path class="st3" d="M245.4,68.3h1v1h-1V68.3 M245.4,70.2h0.5h0.5v5.2h-0.5h-0.5V70.2z"/>
		<path class="st3" d="M250.4,75.6c-0.8,0-1.5-0.2-1.9-0.7c-0.5-0.5-0.7-1.1-0.7-1.9c0-0.9,0.2-1.6,0.7-2.1c0.5-0.5,1.2-0.8,2-0.8
			c0.7,0,1.4,0.3,1.8,0.8c0.5,0.5,0.7,1.2,0.7,2l0,0.3h-4.2c0,0.5,0.2,0.9,0.4,1.2c0.3,0.3,0.7,0.5,1.3,0.5c0.4,0,0.7-0.1,1-0.3
			c0.3-0.2,0.4-0.4,0.5-0.7h1c-0.1,0.6-0.4,1-0.9,1.3C251.6,75.4,251.1,75.6,250.4,75.6 M252,72.4c0-0.5-0.2-0.9-0.4-1.1
			c-0.3-0.3-0.6-0.4-1.2-0.4c-0.5,0-0.9,0.2-1.2,0.5c-0.2,0.3-0.4,0.6-0.4,1.1H252z"/>
		<path class="st3" d="M257.7,71.7c0-0.3-0.2-0.5-0.4-0.7c-0.2-0.2-0.5-0.2-0.9-0.2c-0.4,0-0.7,0.1-0.9,0.2
			c-0.2,0.1-0.3,0.3-0.3,0.6c0,0.2,0.1,0.3,0.2,0.4c0.2,0.1,0.4,0.2,0.9,0.3l1,0.2c0.6,0.1,1,0.3,1.2,0.5c0.2,0.2,0.4,0.5,0.4,0.9
			c0,0.5-0.2,0.9-0.6,1.2c-0.4,0.3-1,0.5-1.7,0.5c-0.8,0-1.4-0.1-1.8-0.4c-0.4-0.3-0.6-0.7-0.7-1.4h0.9c0,0.4,0.2,0.6,0.4,0.8
			c0.2,0.2,0.6,0.2,1.1,0.2c0.4,0,0.8-0.1,1-0.2c0.2-0.2,0.3-0.4,0.3-0.7c0-0.2-0.1-0.3-0.2-0.4c-0.1-0.1-0.4-0.2-0.9-0.3l-1-0.2
			c-0.5-0.1-0.9-0.3-1.2-0.5c-0.2-0.2-0.3-0.5-0.3-0.9c0-0.5,0.2-0.9,0.6-1.2c0.4-0.3,0.9-0.4,1.6-0.4c0.7,0,1.2,0.1,1.6,0.4
			c0.4,0.3,0.6,0.7,0.6,1.2H257.7z"/>
		<path class="st3" d="M262.3,72.8c0,0.8-0.1,1.6-0.4,2.3c-0.3,0.7-0.8,1.5-1.4,2.3h-0.7c0.5-0.8,0.9-1.6,1.1-2.4
			c0.2-0.8,0.4-1.5,0.4-2.3c0-0.8-0.1-1.6-0.4-2.3c-0.2-0.7-0.6-1.5-1.1-2.4h0.7c0.7,0.8,1.1,1.6,1.4,2.3
			C262.2,71.2,262.3,72,262.3,72.8z"/>
	</g>
	<path class="st4" d="M84,32.9c-4.9-10.4-24.6-14.7-23-8.8c1.6,5.8,6.5,13.5,1.9,13.5H51.7c0,0,0,0-0.1,0c-3.2-0.9,0.6-7.9,2.1-13.4
		c1.6-5.8-17.4-1.1-22.3,9.2c-5.3,11.3,0.1,20.5,6.2,25.9c4.9,4.3,7.2-7.9,7.2-7.9c0-0.2,0.1-0.7,0.2-0.9c0.1-0.2,0.8-1.7,1.8-1.9
		c1.3-1,2.2,2.3,2.2,2.3c1.9,5,1.6,13.9,8.8,13.9c7.3,0,6.8-10.6,7.9-14c1.1-3.5,3.5-2.8,4.1,0.2c0,0,2.4,12.5,7.3,8.2
		C83.3,53.9,89.4,44.2,84,32.9z"/>
	<g>
		<path class="st3" d="M102.9,20.6v17.7c0,1.8,0.6,3.4,1.9,4.6c1.2,1.2,2.4,1.9,3.5,2c1.1,0.1,1.8,0.1,2.1,0.1
			c1.6,0,3.1-0.4,4.4-1.3c1.3-0.8,2.2-2,2.7-3.4l0.3-1.5V20.6h3.8v16.9c0,2-0.7,3.8-2,5.5c-1.3,1.7-3,3-5,3.7
			c-1.9,0.6-3.8,0.8-5.7,0.8c-2.9,0-5.6-0.6-7.9-1.8c-2.3-1.2-3.8-3-4.5-5.3V20.6H102.9z"/>
		<polygon class="st3" points="149.6,20.7 149.6,23.8 142.2,23.8 142.2,47 135.4,47 135.4,23.8 127.8,23.8 127.8,21 127.9,20.7 		
			"/>
		<polygon class="st3" points="174.4,20.7 174.4,23.8 167,23.8 167,47 160.2,47 160.2,23.8 152.6,23.8 152.6,21 152.7,20.7 		"/>
		<path class="st3" d="M192.5,20.4c1.4,3.2,2.7,6.4,4.1,9.5c1.3,3.1,2.6,6,3.9,8.8c1.2,2.8,2.5,5.6,3.7,8.3h-7.1l-3-7.8h-10l-3,7.8
			l-3.9,0l12-26.6H192.5 M185.3,36.8h7.7l-3.8-8.8L185.3,36.8z"/>
		<path class="st3" d="M222.3,20.7c2,0,3.6,0.7,4.9,2c1.3,1.3,2,2.8,2,4.6c0,1-0.3,2-0.8,3c-0.5,0.9-1.3,1.7-2.3,2.4
			c-1,0.6-2.2,1.1-3.6,1.5l8.9,12.9h-7.6l-7.6-12.1h-0.3V47h-6.5V20.7H222.3 M215.9,33.2c0.2,0,0.6,0,1,0c3.2,0,4.9-0.8,5.2-2.3
			c0.3-1.6,0.5-2.4,0.5-2.7c0-0.2,0-0.3,0-0.5c0-1.3-0.4-2.5-1.2-3.5c-0.8-1-2-1.4-3.4-1.4h-2.1V33.2z"/>
		<path class="st3" d="M249.4,20.4c1.4,3.2,2.7,6.4,4.1,9.5c1.3,3.1,2.6,6,3.9,8.8c1.2,2.8,2.5,5.6,3.7,8.3h-7.1l-3-7.8h-10l-3,7.8
			l-3.9,0l12-26.6H249.4 M242.2,36.8h7.7l-3.8-8.8L242.2,36.8z"/>
	</g>
	<g>
		<path class="st3" d="M109.9,60.5c-0.1-1.4-0.2-3.1-0.2-4.3h0c-0.5,1.2-1.1,2.4-1.8,3.8l-2.5,4.8H104l-2.3-4.7
			c-0.7-1.4-1.2-2.7-1.6-3.9h0c0,1.2-0.1,2.9-0.3,4.4l-0.4,4.3h-1.7l1-10h2.3l2.4,4.8c0.6,1.2,1,2.3,1.4,3.4h0
			c0.4-1,0.9-2.1,1.5-3.4l2.5-4.8h2.3l0.9,10h-1.8L109.9,60.5z"/>
		<path class="st3" d="M138,65c-3.7,0-6.3-2-6.3-5.1c0-3.2,2.8-5.2,6.5-5.2c3.9,0,6.3,2.1,6.3,5C144.5,63.2,141.6,65,138,65L138,65
			 M138.1,64c2.9,0,4.5-1.9,4.5-4.1c0-2-1.5-4.1-4.5-4.1c-3,0-4.5,2-4.5,4.2C133.6,62,135.2,64,138.1,64L138.1,64z"/>
		<polygon class="st3" points="166.4,56 162.1,56 162.1,54.9 172.5,54.9 172.5,56 168.2,56 168.2,64.9 166.4,64.9 		"/>
		<path class="st3" d="M197.2,65c-3.7,0-6.3-2-6.3-5.1c0-3.2,2.8-5.2,6.5-5.2c3.9,0,6.3,2.1,6.3,5C203.7,63.2,200.8,65,197.2,65
			L197.2,65 M197.3,64c2.9,0,4.5-1.9,4.5-4.1c0-2-1.5-4.1-4.5-4.1c-3,0-4.5,2-4.5,4.2C192.8,62,194.4,64,197.3,64L197.3,64z"/>
		<path class="st3" d="M223.8,55c0.9-0.1,2.3-0.2,3.5-0.2c1.9,0,3.2,0.3,4.1,0.8c0.7,0.4,1.1,1.1,1.1,1.9c0,1.3-1.2,2.2-2.6,2.5v0
			c1.1,0.3,1.7,1,2.1,2c0.5,1.4,0.8,2.4,1.1,2.7h-1.9c-0.2-0.3-0.5-1.1-0.9-2.4c-0.4-1.4-1.2-1.9-2.8-1.9h-1.7v4.3h-1.8V55
			 M225.6,59.6h1.9c1.9,0,3.2-0.8,3.2-1.9c0-1.3-1.3-1.9-3.2-1.9c-0.9,0-1.5,0.1-1.8,0.1V59.6z"/>
		<path class="st3" d="M252.5,63.3c0.8,0.4,2,0.7,3.2,0.7c1.9,0,2.9-0.7,2.9-1.7c0-0.9-0.7-1.5-2.6-2c-2.3-0.6-3.7-1.5-3.7-2.8
			c0-1.6,1.8-2.7,4.5-2.7c1.4,0,2.5,0.2,3.1,0.5l-0.5,1.1c-0.4-0.2-1.4-0.5-2.6-0.5c-1.9,0-2.6,0.8-2.6,1.5c0,0.9,0.9,1.4,2.8,1.9
			c2.4,0.7,3.6,1.5,3.6,2.9c0,1.5-1.6,2.9-4.9,2.9c-1.4,0-2.8-0.3-3.6-0.7L252.5,63.3z"/>
	</g>
</g>
</svg>
