<?xml version="1.0" encoding="utf-8"?>
<!-- Generator: Adobe Illustrator 19.2.0, SVG Export Plug-In . SVG Version: 6.00 Build 0)  -->
<svg version="1.1" id="Layer_1" xmlns="http://www.w3.org/2000/svg" xmlns:xlink="http://www.w3.org/1999/xlink" x="0px" y="0px"
	 width="291.5px" height="97.9px" viewBox="0 0 291.5 97.9" style="enable-background:new 0 0 291.5 97.9;" xml:space="preserve">
<style type="text/css">
	.st0{fill:#EC008C;stroke:#000000;}
	.st1{stroke:#000000;stroke-width:0.25;}
	.st2{fill:none;stroke:#000000;stroke-width:1.5;}
	.st3{fill:#FFFFFF;}
	.st4{fill:#EC008C;stroke:#FFFFFF;}
</style>
<g>
	<g>
		<path d="M30.5,74.2c0-0.8,0.1-1.6,0.5-2.3c0.3-0.7,0.8-1.5,1.4-2.3H33c-0.5,0.8-0.9,1.6-1.1,2.4c-0.2,0.8-0.4,1.5-0.4,2.3
			c0,0.8,0.1,1.6,0.4,2.3c0.2,0.8,0.6,1.5,1.1,2.4h-0.7c-0.7-0.8-1.1-1.6-1.4-2.3C30.6,75.8,30.5,75,30.5,74.2z"/>
		<path d="M36.7,69.6h0.6H38l2.8,7.2h-0.6h-0.6l-0.8-2.1h-3.2l-0.8,2.1h-0.5h-0.6L36.7,69.6 M36,73.9h2.5l-1.2-3.2h0L36,73.9z"/>
		<path d="M41.9,71.6h0.5h0.5v0.8l0.2-0.3c0.4-0.4,0.9-0.7,1.6-0.7c0.6,0,1.1,0.2,1.5,0.5c0.3,0.3,0.5,0.8,0.5,1.3v3.6h-0.5h-0.5
			v-3.3c0-0.5-0.1-0.8-0.3-1c-0.2-0.2-0.5-0.3-0.9-0.3c-0.5,0-0.8,0.2-1.1,0.5C43,73,42.8,73.5,42.8,74v2.8h-0.5h-0.5V71.6z"/>
		<polygon points="51.7,76.8 51.7,69.6 57.5,69.6 57.5,70.1 57.5,70.5 52.8,70.5 52.8,72.7 57.1,72.7 57.1,73.1 57.1,73.5 
			52.8,73.5 52.8,76 57.6,76 57.6,76.4 57.6,76.8 		"/>
		<path d="M59.1,71.6h0.5H60v0.8l0.2-0.3c0.4-0.4,0.9-0.7,1.6-0.7c0.6,0,1.1,0.2,1.5,0.5c0.3,0.3,0.5,0.8,0.5,1.3v3.6h-0.5h-0.5
			v-3.3c0-0.5-0.1-0.8-0.3-1c-0.2-0.2-0.5-0.3-0.9-0.3c-0.5,0-0.8,0.2-1.1,0.5C60.2,73,60,73.5,60,74v2.8h-0.5h-0.5V71.6z"/>
		<path d="M67.5,76.8c-0.3,0-0.6,0.1-0.7,0.1c-0.4,0-0.7-0.1-0.9-0.3c-0.2-0.2-0.3-0.5-0.3-0.9v-3.5h-0.8v-0.7h0.8v-1.5h1v1.5h0.9
			v0.7h-0.9v3.5c0,0.1,0.1,0.2,0.2,0.3c0.1,0.1,0.2,0.1,0.4,0.1h0.3V76.8z"/>
		<path d="M71,77c-0.8,0-1.5-0.2-1.9-0.7c-0.5-0.5-0.7-1.1-0.7-1.9c0-0.9,0.2-1.6,0.7-2.1c0.5-0.5,1.2-0.8,2-0.8
			c0.8,0,1.4,0.3,1.8,0.8c0.5,0.5,0.7,1.2,0.7,2l0,0.3h-4.2c0,0.5,0.2,0.9,0.4,1.2c0.3,0.3,0.7,0.5,1.3,0.5c0.4,0,0.7-0.1,1-0.3
			c0.3-0.2,0.4-0.4,0.5-0.7h1c-0.1,0.6-0.4,1-0.9,1.3C72.3,76.8,71.7,77,71,77 M72.6,73.8c0-0.5-0.2-0.9-0.4-1.1
			c-0.3-0.3-0.6-0.4-1.2-0.4c-0.5,0-0.9,0.2-1.2,0.5c-0.2,0.3-0.4,0.6-0.4,1.1H72.6z"/>
		<path d="M75.2,71.6h0.5h0.5v0.9c0.1-0.1,0.2-0.3,0.3-0.4c0.4-0.4,0.8-0.7,1.3-0.7c0.1,0,0.2,0,0.3,0v0.9l-0.2,0
			c-0.5,0-0.9,0.1-1.2,0.4c-0.3,0.3-0.4,0.7-0.4,1.2v2.8h-0.5h-0.5V71.6z"/>
		<path d="M78.8,71.6h0.5h0.5v0.7l0-0.1c0.4-0.6,1-0.8,1.6-0.8c0.8,0,1.3,0.2,1.8,0.7c0.4,0.5,0.7,1.1,0.7,1.9
			c0,0.9-0.2,1.6-0.7,2.1c-0.4,0.5-1.1,0.8-1.8,0.8c-0.6,0-1.2-0.2-1.5-0.7l0,0v2.6h-0.5h-0.5V71.6 M81.3,76.2
			c0.5,0,0.9-0.2,1.1-0.5c0.3-0.3,0.4-0.9,0.4-1.5c0-0.7-0.1-1.1-0.4-1.5c-0.2-0.3-0.6-0.5-1.2-0.5c-0.5,0-0.9,0.2-1.2,0.5
			c-0.2,0.4-0.4,0.9-0.4,1.7c0,0.6,0.1,1,0.4,1.3C80.5,76,80.8,76.2,81.3,76.2z"/>
		<path d="M85.4,71.6h0.5h0.5v0.9c0.1-0.1,0.2-0.3,0.3-0.4c0.4-0.4,0.8-0.7,1.3-0.7c0.1,0,0.2,0,0.3,0v0.9l-0.2,0
			c-0.5,0-0.9,0.1-1.2,0.4c-0.3,0.3-0.4,0.7-0.4,1.2v2.8h-0.5h-0.5V71.6z"/>
		<path d="M89.2,69.6h1v1h-1V69.6 M89.2,71.6h0.5h0.5v5.2h-0.5h-0.5V71.6z"/>
		<path d="M95.1,73.1c0-0.3-0.2-0.5-0.4-0.7c-0.2-0.2-0.5-0.2-0.9-0.2c-0.4,0-0.7,0.1-0.9,0.2c-0.2,0.1-0.3,0.3-0.3,0.6
			c0,0.2,0.1,0.3,0.2,0.4c0.1,0.1,0.4,0.2,0.9,0.3l1,0.2c0.6,0.1,1,0.3,1.2,0.5c0.2,0.2,0.4,0.5,0.4,0.9c0,0.5-0.2,0.9-0.6,1.2
			c-0.4,0.3-1,0.5-1.7,0.5c-0.8,0-1.4-0.1-1.8-0.4c-0.4-0.3-0.6-0.7-0.7-1.4h0.9c0,0.4,0.2,0.6,0.4,0.8c0.2,0.2,0.6,0.2,1.1,0.2
			c0.4,0,0.8-0.1,1-0.2c0.2-0.2,0.3-0.4,0.3-0.7c0-0.2-0.1-0.3-0.2-0.4c-0.1-0.1-0.4-0.2-0.9-0.3l-1-0.2c-0.5-0.1-0.9-0.3-1.2-0.5
			c-0.2-0.2-0.3-0.5-0.3-0.9c0-0.5,0.2-0.9,0.6-1.2c0.4-0.3,0.9-0.4,1.6-0.4c0.7,0,1.2,0.1,1.6,0.4c0.4,0.3,0.6,0.7,0.6,1.2l0,0
			H95.1z"/>
		<path d="M99.9,77c-0.8,0-1.5-0.2-1.9-0.7c-0.5-0.5-0.7-1.1-0.7-1.9c0-0.9,0.2-1.6,0.7-2.1c0.5-0.5,1.2-0.8,2-0.8
			c0.8,0,1.4,0.3,1.8,0.8c0.5,0.5,0.7,1.2,0.7,2l0,0.3h-4.2c0,0.5,0.2,0.9,0.4,1.2c0.3,0.3,0.7,0.5,1.3,0.5c0.4,0,0.7-0.1,1-0.3
			c0.3-0.2,0.4-0.4,0.5-0.7h1c-0.1,0.6-0.4,1-0.9,1.3C101.1,76.8,100.5,77,99.9,77 M101.5,73.8c0-0.5-0.2-0.9-0.4-1.1
			c-0.3-0.3-0.6-0.4-1.2-0.4c-0.5,0-0.9,0.2-1.2,0.5c-0.2,0.3-0.4,0.6-0.4,1.1H101.5z"/>
		<path d="M107.6,76.2c-0.5-0.5-0.7-1.2-0.7-2c0-0.8,0.2-1.5,0.7-2c0.5-0.5,1.1-0.8,1.9-0.8c0.8,0,1.4,0.3,1.9,0.8
			c0.5,0.5,0.7,1.2,0.7,2c0,0.8-0.2,1.5-0.7,2c-0.5,0.5-1.1,0.8-1.9,0.8C108.7,77,108,76.7,107.6,76.2 M110.7,75.7
			c0.3-0.4,0.5-0.8,0.5-1.5c0-0.6-0.2-1.1-0.5-1.5c-0.3-0.4-0.7-0.5-1.2-0.5c-0.5,0-0.9,0.2-1.2,0.5c-0.3,0.4-0.4,0.9-0.4,1.5
			c0,0.6,0.2,1.1,0.4,1.5c0.3,0.4,0.7,0.5,1.2,0.5C110,76.2,110.4,76,110.7,75.7z"/>
		<path d="M114.7,72.3v4.5h-0.5h-0.5v-4.5h-0.8v-0.7h0.8v-0.9c0-0.4,0.1-0.7,0.4-0.9c0.3-0.2,0.6-0.3,1.1-0.3l0.4,0v0.8l-0.4,0
			c-0.2,0-0.3,0.1-0.4,0.2c-0.1,0.1-0.2,0.3-0.2,0.5v0.6h1v0.7H114.7z"/>
		<path d="M126.4,74.2c0,0.9-0.3,1.6-0.8,2.1c-0.5,0.5-1.3,0.7-2.3,0.7c-1,0-1.8-0.2-2.3-0.7c-0.5-0.5-0.8-1.2-0.8-2.1v-4.5h0.5h0.5
			v4.5c0,0.7,0.2,1.2,0.5,1.5c0.3,0.3,0.9,0.5,1.5,0.5c0.7,0,1.2-0.2,1.5-0.5c0.3-0.3,0.5-0.9,0.5-1.5v-4.5h0.5h0.5V74.2z"/>
		<path d="M130.3,76.8c-0.3,0-0.6,0.1-0.7,0.1c-0.4,0-0.7-0.1-0.9-0.3c-0.2-0.2-0.3-0.5-0.3-0.9v-3.5h-0.8v-0.7h0.8v-1.5h1v1.5h0.9
			v0.7h-0.9v3.5c0,0.1,0.1,0.2,0.2,0.3c0.1,0.1,0.2,0.1,0.4,0.1h0.3V76.8z"/>
		<path d="M133.6,76.8c-0.3,0-0.6,0.1-0.7,0.1c-0.4,0-0.7-0.1-0.9-0.3c-0.2-0.2-0.3-0.5-0.3-0.9v-3.5h-0.8v-0.7h0.8v-1.5h1v1.5h0.9
			v0.7h-0.9v3.5c0,0.1,0.1,0.2,0.2,0.3c0.1,0.1,0.2,0.1,0.4,0.1h0.3V76.8z"/>
		<path d="M136.3,77c-0.6,0-1-0.1-1.3-0.4c-0.3-0.3-0.5-0.6-0.5-1.1c0-0.5,0.2-0.8,0.5-1.1c0.3-0.3,0.8-0.4,1.4-0.5l1.3-0.2
			c0.1,0,0.2,0,0.3,0c0.1,0,0.2-0.1,0.3-0.2c0.1-0.1,0.1-0.2,0.1-0.3v0c0-0.3-0.1-0.5-0.3-0.7c-0.2-0.2-0.6-0.2-1-0.2
			c-0.4,0-0.7,0.1-0.9,0.2c-0.2,0.2-0.4,0.4-0.4,0.7h-0.9c0-0.6,0.3-1,0.7-1.3c0.4-0.3,1-0.4,1.7-0.4c0.7,0,1.2,0.1,1.6,0.4
			c0.4,0.3,0.5,0.7,0.5,1.2v2.9c0,0.1,0,0.2,0.1,0.2c0.1,0.1,0.1,0.1,0.2,0.1c0,0,0.1,0,0.1,0c0.1,0,0.1,0,0.2,0v0.6
			c-0.1,0-0.2,0.1-0.3,0.1c-0.1,0-0.2,0-0.3,0c-0.4,0-0.6-0.1-0.8-0.3c-0.1-0.1-0.2-0.3-0.2-0.5c-0.1,0.1-0.2,0.2-0.3,0.2
			C137.6,76.8,137,77,136.3,77 M138.3,74.8v-0.6c-0.2,0.1-0.4,0.1-0.6,0.2l-0.9,0.1c-0.5,0.1-0.8,0.2-1,0.3
			c-0.2,0.1-0.3,0.3-0.3,0.6c0,0.3,0.1,0.5,0.3,0.7c0.2,0.2,0.4,0.2,0.7,0.2c0.5,0,0.9-0.1,1.3-0.4c0.2-0.2,0.4-0.4,0.5-0.6
			c0,0,0-0.1,0-0.2C138.3,75,138.3,74.9,138.3,74.8z"/>
		<path d="M141.2,71.6h0.5h0.5v0.9c0.1-0.1,0.2-0.3,0.3-0.4c0.4-0.4,0.8-0.7,1.3-0.7c0.1,0,0.2,0,0.3,0v0.9l-0.2,0
			c-0.5,0-0.9,0.1-1.2,0.4c-0.3,0.3-0.4,0.7-0.4,1.2v2.8h-0.5h-0.5V71.6z"/>
		<path d="M146.5,77c-0.6,0-1-0.1-1.3-0.4c-0.3-0.3-0.5-0.6-0.5-1.1c0-0.5,0.2-0.8,0.5-1.1c0.3-0.3,0.8-0.4,1.4-0.5l1.3-0.2
			c0.1,0,0.2,0,0.3,0c0.1,0,0.2-0.1,0.3-0.2c0.1-0.1,0.1-0.2,0.1-0.3v0c0-0.3-0.1-0.5-0.3-0.7c-0.2-0.2-0.6-0.2-1-0.2
			c-0.4,0-0.7,0.1-0.9,0.2c-0.2,0.2-0.4,0.4-0.4,0.7H145c0-0.6,0.3-1,0.7-1.3c0.4-0.3,1-0.4,1.7-0.4c0.7,0,1.2,0.1,1.6,0.4
			c0.4,0.3,0.5,0.7,0.5,1.2v2.9c0,0.1,0,0.2,0.1,0.2c0.1,0.1,0.1,0.1,0.2,0.1c0,0,0.1,0,0.1,0c0.1,0,0.1,0,0.2,0v0.6
			c-0.1,0-0.2,0.1-0.3,0.1c-0.1,0-0.2,0-0.3,0c-0.4,0-0.6-0.1-0.8-0.3c-0.1-0.1-0.2-0.3-0.2-0.5c-0.1,0.1-0.2,0.2-0.2,0.2
			C147.8,76.8,147.2,77,146.5,77 M148.5,74.8v-0.6c-0.2,0.1-0.4,0.1-0.6,0.2l-0.9,0.1c-0.5,0.1-0.8,0.2-1,0.3
			c-0.2,0.1-0.3,0.3-0.3,0.6c0,0.3,0.1,0.5,0.3,0.7c0.2,0.2,0.4,0.2,0.7,0.2c0.5,0,0.9-0.1,1.3-0.4c0.2-0.2,0.4-0.4,0.5-0.6
			c0,0,0-0.1,0-0.2C148.5,75,148.5,74.9,148.5,74.8z"/>
		<path d="M158.1,77c-1.1,0-2-0.3-2.7-1c-0.7-0.7-1-1.6-1-2.7c0-1.1,0.3-2,1-2.7c0.7-0.7,1.6-1,2.7-1c0.9,0,1.6,0.2,2.2,0.7
			c0.6,0.4,1,1,1.1,1.7h-1c-0.1-0.5-0.4-0.8-0.8-1.1c-0.4-0.3-0.9-0.4-1.6-0.4c-0.8,0-1.4,0.3-1.9,0.8c-0.5,0.5-0.7,1.3-0.7,2.1
			c0,0.9,0.2,1.7,0.7,2.2c0.5,0.5,1.1,0.8,2,0.8c0.8,0,1.5-0.3,2-0.8c0.1-0.1,0.2-0.2,0.2-0.3c0.1-0.1,0.2-0.3,0.2-0.5
			c0.1-0.2,0.1-0.4,0.1-0.6v-0.1h-2.5V73h3.5v3.8H161l-0.3-0.9l-0.1,0.1C160,76.7,159.1,77,158.1,77z"/>
		<path d="M163.5,71.6h0.5h0.5v0.9c0.1-0.1,0.2-0.3,0.3-0.4c0.4-0.4,0.8-0.7,1.4-0.7c0.1,0,0.2,0,0.3,0v0.9l-0.2,0
			c-0.5,0-0.9,0.1-1.2,0.4c-0.3,0.3-0.4,0.7-0.4,1.2v2.8H164h-0.5V71.6z"/>
		<path d="M167.7,76.2c-0.5-0.5-0.7-1.2-0.7-2c0-0.8,0.2-1.5,0.7-2c0.5-0.5,1.1-0.8,1.9-0.8c0.8,0,1.5,0.3,1.9,0.8
			c0.5,0.5,0.7,1.2,0.7,2c0,0.8-0.2,1.5-0.7,2c-0.5,0.5-1.1,0.8-1.9,0.8C168.8,77,168.2,76.7,167.7,76.2 M170.8,75.7
			c0.3-0.4,0.4-0.8,0.4-1.5c0-0.6-0.1-1.1-0.4-1.5c-0.3-0.4-0.7-0.5-1.2-0.5c-0.5,0-0.9,0.2-1.2,0.5c-0.3,0.4-0.4,0.9-0.4,1.5
			c0,0.6,0.2,1.1,0.4,1.5c0.3,0.4,0.7,0.5,1.2,0.5C170.1,76.2,170.5,76,170.8,75.7z"/>
		<path d="M174.6,75c0,0.4,0.1,0.8,0.3,0.9c0.2,0.2,0.5,0.3,0.9,0.3c0.5,0,0.8-0.2,1.1-0.5c0.3-0.3,0.4-0.8,0.4-1.3v-2.8h0.5h0.5
			v5.2h-0.5h-0.5V76c-0.1,0.1-0.1,0.2-0.2,0.3c-0.4,0.4-0.9,0.7-1.5,0.7c-0.6,0-1.1-0.1-1.5-0.4c-0.3-0.3-0.5-0.7-0.5-1.3v-3.6h0.5
			h0.5V75z"/>
		<path d="M179.9,71.6h0.5h0.5v0.7l0-0.1c0.4-0.6,1-0.8,1.6-0.8c0.8,0,1.4,0.2,1.8,0.7c0.4,0.5,0.7,1.1,0.7,1.9
			c0,0.9-0.2,1.6-0.7,2.1c-0.4,0.5-1.1,0.8-1.8,0.8c-0.6,0-1.2-0.2-1.5-0.7l0,0v2.6h-0.5h-0.5V71.6 M182.4,76.2
			c0.5,0,0.9-0.2,1.1-0.5c0.3-0.3,0.4-0.9,0.4-1.5c0-0.7-0.1-1.1-0.4-1.5c-0.3-0.3-0.6-0.5-1.2-0.5c-0.5,0-0.9,0.2-1.2,0.5
			c-0.2,0.4-0.4,0.9-0.4,1.7c0,0.6,0.1,1,0.4,1.3C181.5,76,181.9,76.2,182.4,76.2z"/>
		<path d="M190,76.2c-0.5-0.5-0.7-1.2-0.7-2c0-0.8,0.2-1.5,0.7-2c0.5-0.5,1.1-0.8,1.9-0.8c0.8,0,1.5,0.3,1.9,0.8
			c0.5,0.5,0.7,1.2,0.7,2c0,0.8-0.2,1.5-0.7,2c-0.5,0.5-1.1,0.8-1.9,0.8C191.1,77,190.5,76.7,190,76.2 M193.1,75.7
			c0.3-0.4,0.4-0.8,0.4-1.5c0-0.6-0.2-1.1-0.4-1.5c-0.3-0.4-0.7-0.5-1.2-0.5c-0.5,0-0.9,0.2-1.2,0.5c-0.3,0.4-0.4,0.9-0.4,1.5
			c0,0.6,0.1,1.1,0.4,1.5c0.3,0.4,0.7,0.5,1.2,0.5C192.4,76.2,192.8,76,193.1,75.7z"/>
		<path d="M197.1,72.3v4.5h-0.5h-0.5v-4.5h-0.8v-0.7h0.8v-0.9c0-0.4,0.1-0.7,0.4-0.9c0.3-0.2,0.6-0.3,1.1-0.3l0.4,0v0.8l-0.4,0
			c-0.2,0-0.3,0.1-0.4,0.2c-0.1,0.1-0.2,0.3-0.2,0.5v0.6h1v0.7H197.1z"/>
		<path d="M209.2,74.2c-0.1,0.9-0.5,1.6-1.1,2.1c-0.6,0.5-1.4,0.8-2.3,0.8c-1.1,0-2-0.3-2.6-1c-0.7-0.7-1-1.6-1-2.8
			c0-1.2,0.3-2.1,1-2.8c0.7-0.7,1.6-1,2.7-1c0.9,0,1.6,0.2,2.2,0.6c0.6,0.4,0.9,1,1,1.7h-1c-0.1-0.5-0.3-0.8-0.7-1.1
			c-0.4-0.3-0.9-0.4-1.5-0.4c-0.8,0-1.4,0.3-1.9,0.8c-0.5,0.5-0.7,1.2-0.7,2.1c0,1,0.2,1.7,0.7,2.2c0.4,0.5,1.1,0.7,1.9,0.7
			c0.6,0,1.1-0.2,1.5-0.5c0.4-0.3,0.7-0.8,0.8-1.5H209.2z"/>
		<path d="M211,76.2c-0.5-0.5-0.7-1.2-0.7-2c0-0.8,0.2-1.5,0.7-2c0.5-0.5,1.1-0.8,1.9-0.8c0.8,0,1.4,0.3,1.9,0.8
			c0.5,0.5,0.7,1.2,0.7,2c0,0.8-0.2,1.5-0.7,2c-0.5,0.5-1.1,0.8-1.9,0.8C212.2,77,211.5,76.7,211,76.2 M214.2,75.7
			c0.3-0.4,0.5-0.8,0.5-1.5c0-0.6-0.2-1.1-0.5-1.5c-0.3-0.4-0.7-0.5-1.2-0.5c-0.5,0-0.9,0.2-1.2,0.5c-0.3,0.4-0.4,0.9-0.4,1.5
			c0,0.6,0.1,1.1,0.4,1.5c0.3,0.4,0.7,0.5,1.2,0.5C213.5,76.2,213.9,76,214.2,75.7z"/>
		<path d="M217,71.6h0.5h0.5v0.8l0.2-0.2c0.4-0.5,1-0.7,1.6-0.7c0.5,0,0.9,0.1,1.2,0.4c0.1,0.1,0.2,0.3,0.3,0.4l0.2-0.2
			c0.4-0.4,0.9-0.7,1.5-0.7c0.6,0,1.1,0.1,1.4,0.4c0.3,0.3,0.5,0.7,0.5,1.3v3.7h-0.5h-0.5v-3.4c0-0.4-0.1-0.7-0.3-0.9
			c-0.2-0.2-0.4-0.3-0.8-0.3c-0.4,0-0.8,0.2-1,0.4c-0.2,0.3-0.4,0.7-0.4,1.2v2.9h-0.5h-0.5v-3.6c0-0.3-0.1-0.6-0.2-0.7
			c-0.2-0.2-0.4-0.3-0.7-0.3c-0.4,0-0.8,0.2-1.1,0.5c-0.3,0.3-0.4,0.8-0.4,1.3v2.8h-0.5H217V71.6z"/>
		<path d="M226.3,71.6h0.5h0.5v0.7l0-0.1c0.4-0.6,1-0.8,1.6-0.8c0.8,0,1.3,0.2,1.8,0.7c0.4,0.5,0.7,1.1,0.7,1.9
			c0,0.9-0.2,1.6-0.7,2.1c-0.4,0.5-1.1,0.8-1.8,0.8c-0.6,0-1.2-0.2-1.5-0.7l0,0v2.6h-0.5h-0.5V71.6 M228.8,76.2
			c0.5,0,0.9-0.2,1.1-0.5c0.3-0.3,0.4-0.9,0.4-1.5c0-0.7-0.1-1.1-0.4-1.5c-0.3-0.3-0.6-0.5-1.2-0.5c-0.5,0-0.9,0.2-1.2,0.5
			c-0.2,0.4-0.4,0.9-0.4,1.7c0,0.6,0.1,1,0.4,1.3C227.9,76,228.3,76.2,228.8,76.2z"/>
		<path d="M234.2,77c-0.6,0-1-0.1-1.3-0.4c-0.3-0.3-0.5-0.6-0.5-1.1c0-0.5,0.2-0.8,0.5-1.1c0.3-0.3,0.8-0.4,1.4-0.5l1.3-0.2
			c0.1,0,0.2,0,0.3,0c0.1,0,0.2-0.1,0.3-0.2c0.1-0.1,0.1-0.2,0.1-0.3v0c0-0.3-0.1-0.5-0.3-0.7c-0.2-0.2-0.6-0.2-1-0.2
			c-0.4,0-0.7,0.1-0.9,0.2c-0.2,0.2-0.4,0.4-0.4,0.7h-0.9c0-0.6,0.3-1,0.7-1.3c0.4-0.3,1-0.4,1.7-0.4c0.7,0,1.2,0.1,1.6,0.4
			c0.4,0.3,0.5,0.7,0.5,1.2v2.9c0,0.1,0,0.2,0.1,0.2c0.1,0.1,0.1,0.1,0.2,0.1c0,0,0.1,0,0.1,0c0.1,0,0.1,0,0.2,0v0.6
			c-0.1,0-0.2,0.1-0.3,0.1c-0.1,0-0.2,0-0.3,0c-0.4,0-0.6-0.1-0.8-0.3c-0.1-0.1-0.2-0.3-0.2-0.5c-0.1,0.1-0.2,0.2-0.3,0.2
			C235.5,76.8,234.9,77,234.2,77 M236.2,74.8v-0.6c-0.2,0.1-0.4,0.1-0.6,0.2l-0.9,0.1c-0.5,0.1-0.8,0.2-1,0.3
			c-0.2,0.1-0.3,0.3-0.3,0.6c0,0.3,0.1,0.5,0.3,0.7c0.2,0.2,0.4,0.2,0.7,0.2c0.5,0,0.9-0.1,1.3-0.4c0.2-0.2,0.4-0.4,0.5-0.6
			c0,0,0-0.1,0-0.2C236.2,75,236.2,74.9,236.2,74.8z"/>
		<path d="M239,71.6h0.5h0.5v0.8l0.2-0.3c0.4-0.4,0.9-0.7,1.6-0.7c0.6,0,1.1,0.2,1.5,0.5c0.3,0.3,0.5,0.8,0.5,1.3v3.6h-0.5h-0.5
			v-3.3c0-0.5-0.1-0.8-0.3-1c-0.2-0.2-0.5-0.3-1-0.3c-0.5,0-0.8,0.2-1.1,0.5c-0.3,0.3-0.4,0.8-0.4,1.3v2.8h-0.5H239V71.6z"/>
		<path d="M245.4,69.6h1v1h-1V69.6 M245.4,71.6h0.5h0.5v5.2h-0.5h-0.5V71.6z"/>
		<path d="M250.4,77c-0.8,0-1.5-0.2-1.9-0.7c-0.5-0.5-0.7-1.1-0.7-1.9c0-0.9,0.2-1.6,0.7-2.1c0.5-0.5,1.2-0.8,2-0.8
			c0.7,0,1.4,0.3,1.8,0.8c0.5,0.5,0.7,1.2,0.7,2l0,0.3h-4.2c0,0.5,0.2,0.9,0.4,1.2c0.3,0.3,0.7,0.5,1.3,0.5c0.4,0,0.7-0.1,1-0.3
			c0.3-0.2,0.4-0.4,0.5-0.7h1c-0.1,0.6-0.4,1-0.9,1.3C251.6,76.8,251.1,77,250.4,77 M252,73.8c0-0.5-0.2-0.9-0.4-1.1
			c-0.3-0.3-0.6-0.4-1.2-0.4c-0.5,0-0.9,0.2-1.2,0.5c-0.2,0.3-0.4,0.6-0.4,1.1H252z"/>
		<path d="M257.7,73.1c0-0.3-0.2-0.5-0.4-0.7c-0.2-0.2-0.5-0.2-0.9-0.2c-0.4,0-0.7,0.1-0.9,0.2c-0.2,0.1-0.3,0.3-0.3,0.6
			c0,0.2,0.1,0.3,0.2,0.4c0.2,0.1,0.4,0.2,0.9,0.3l1,0.2c0.6,0.1,1,0.3,1.2,0.5c0.2,0.2,0.4,0.5,0.4,0.9c0,0.5-0.2,0.9-0.6,1.2
			c-0.4,0.3-1,0.5-1.7,0.5c-0.8,0-1.4-0.1-1.8-0.4c-0.4-0.3-0.6-0.7-0.7-1.4h0.9c0,0.4,0.2,0.6,0.4,0.8c0.2,0.2,0.6,0.2,1.1,0.2
			c0.4,0,0.8-0.1,1-0.2c0.2-0.2,0.3-0.4,0.3-0.7c0-0.2-0.1-0.3-0.2-0.4c-0.1-0.1-0.4-0.2-0.9-0.3l-1-0.2c-0.5-0.1-0.9-0.3-1.2-0.5
			c-0.2-0.2-0.3-0.5-0.3-0.9c0-0.5,0.2-0.9,0.6-1.2c0.4-0.3,0.9-0.4,1.6-0.4c0.7,0,1.2,0.1,1.6,0.4c0.4,0.3,0.6,0.7,0.6,1.2H257.7z"
			/>
		<path d="M262.3,74.2c0,0.8-0.1,1.6-0.4,2.3c-0.3,0.7-0.8,1.5-1.4,2.3h-0.7c0.5-0.8,0.9-1.6,1.1-2.4c0.2-0.8,0.4-1.5,0.4-2.3
			c0-0.8-0.1-1.6-0.4-2.3c-0.2-0.7-0.6-1.5-1.1-2.4h0.7c0.7,0.8,1.1,1.6,1.4,2.3C262.2,72.6,262.3,73.4,262.3,74.2z"/>
	</g>
	<path class="st0" d="M84,34.3C79.1,24,59.4,19.6,61,25.5c1.6,5.8,6.5,13.5,1.9,13.5H51.7c0,0,0,0-0.1,0c-3.2-0.9,0.6-7.9,2.1-13.4
		c1.6-5.8-17.4-1.1-22.3,9.2c-5.3,11.3,0.1,20.5,6.2,25.9c4.9,4.3,7.2-7.9,7.2-7.9c0-0.2,0.1-0.7,0.2-0.9c0.1-0.2,0.8-1.7,1.8-1.9
		c1.3-1,2.2,2.3,2.2,2.3c1.9,5,1.6,13.9,8.8,13.9c7.3,0,6.8-10.6,7.9-14c1.1-3.5,3.5-2.8,4.1,0.2c0,0,2.4,12.5,7.3,8.2
		C83.3,55.2,89.4,45.6,84,34.3z"/>
	<g>
		<path d="M102.9,22v17.7c0,1.8,0.6,3.4,1.9,4.6c1.2,1.2,2.4,1.9,3.5,2c1.1,0.1,1.8,0.1,2.1,0.1c1.6,0,3.1-0.4,4.4-1.3
			c1.3-0.8,2.2-2,2.7-3.4l0.3-1.5V22h3.8v16.9c0,2-0.7,3.8-2,5.5c-1.3,1.7-3,3-5,3.7c-1.9,0.6-3.8,0.8-5.7,0.8
			c-2.9,0-5.6-0.6-7.9-1.8c-2.3-1.2-3.8-3-4.5-5.3V22H102.9z"/>
		<polygon points="149.6,22.1 149.6,25.2 142.2,25.2 142.2,48.3 135.4,48.3 135.4,25.2 127.8,25.2 127.8,22.4 127.9,22.1 		"/>
		<polygon points="174.4,22.1 174.4,25.2 167,25.2 167,48.3 160.2,48.3 160.2,25.2 152.6,25.2 152.6,22.4 152.7,22.1 		"/>
		<path d="M192.5,21.8c1.4,3.2,2.7,6.4,4.1,9.5c1.3,3.1,2.6,6,3.9,8.8c1.2,2.8,2.5,5.6,3.7,8.3h-7.1l-3-7.8h-10l-3,7.8l-3.9,0
			l12-26.6H192.5 M185.3,38.2h7.7l-3.8-8.8L185.3,38.2z"/>
		<path d="M222.3,22.1c2,0,3.6,0.7,4.9,2c1.3,1.3,2,2.8,2,4.6c0,1-0.3,2-0.8,3c-0.5,0.9-1.3,1.7-2.3,2.4c-1,0.6-2.2,1.1-3.6,1.5
			l8.9,12.9h-7.6l-7.6-12.1h-0.3v12.1h-6.5V22.1H222.3 M215.9,34.6c0.2,0,0.6,0,1,0c3.2,0,4.9-0.8,5.2-2.3c0.3-1.6,0.5-2.4,0.5-2.7
			c0-0.2,0-0.3,0-0.5c0-1.3-0.4-2.5-1.2-3.5c-0.8-1-2-1.4-3.4-1.4h-2.1V34.6z"/>
		<path d="M249.4,21.8c1.4,3.2,2.7,6.4,4.1,9.5c1.3,3.1,2.6,6,3.9,8.8c1.2,2.8,2.5,5.6,3.7,8.3h-7.1l-3-7.8h-10l-3,7.8l-3.9,0
			l12-26.6H249.4 M242.2,38.2h7.7l-3.8-8.8L242.2,38.2z"/>
	</g>
	<g>
		<path class="st1" d="M109.9,61.9c-0.1-1.4-0.2-3.1-0.2-4.3h0c-0.5,1.2-1.1,2.4-1.8,3.8l-2.5,4.8H104l-2.3-4.7
			c-0.7-1.4-1.2-2.7-1.6-3.9h0c0,1.2-0.1,2.9-0.3,4.4l-0.4,4.3h-1.7l1-10h2.3l2.4,4.8c0.6,1.2,1,2.3,1.4,3.4h0
			c0.4-1,0.9-2.1,1.5-3.4l2.5-4.8h2.3l0.9,10h-1.8L109.9,61.9z"/>
		<path class="st1" d="M138,66.4c-3.7,0-6.3-2-6.3-5.1c0-3.2,2.8-5.2,6.5-5.2c3.9,0,6.3,2.1,6.3,5C144.5,64.6,141.6,66.4,138,66.4
			L138,66.4 M138.1,65.4c2.9,0,4.5-1.9,4.5-4.1c0-2-1.5-4.1-4.5-4.1c-3,0-4.5,2-4.5,4.2C133.6,63.4,135.2,65.4,138.1,65.4
			L138.1,65.4z"/>
		<polygon class="st1" points="166.4,57.4 162.1,57.4 162.1,56.3 172.5,56.3 172.5,57.4 168.2,57.4 168.2,66.2 166.4,66.2 		"/>
		<path class="st1" d="M197.2,66.4c-3.7,0-6.3-2-6.3-5.1c0-3.2,2.8-5.2,6.5-5.2c3.9,0,6.3,2.1,6.3,5
			C203.7,64.6,200.8,66.4,197.2,66.4L197.2,66.4 M197.3,65.4c2.9,0,4.5-1.9,4.5-4.1c0-2-1.5-4.1-4.5-4.1c-3,0-4.5,2-4.5,4.2
			C192.8,63.4,194.4,65.4,197.3,65.4L197.3,65.4z"/>
		<path class="st1" d="M223.8,56.4c0.9-0.1,2.3-0.2,3.5-0.2c1.9,0,3.2,0.3,4.1,0.8c0.7,0.4,1.1,1.1,1.1,1.9c0,1.3-1.2,2.2-2.6,2.5v0
			c1.1,0.3,1.7,1,2.1,2c0.5,1.4,0.8,2.4,1.1,2.7h-1.9c-0.2-0.3-0.5-1.1-0.9-2.4c-0.4-1.4-1.2-1.9-2.8-1.9h-1.7v4.3h-1.8V56.4
			 M225.6,60.9h1.9c1.9,0,3.2-0.8,3.2-1.9c0-1.3-1.3-1.9-3.2-1.9c-0.9,0-1.5,0.1-1.8,0.1V60.9z"/>
		<path class="st1" d="M252.5,64.7c0.8,0.4,2,0.7,3.2,0.7c1.9,0,2.9-0.7,2.9-1.7c0-0.9-0.7-1.5-2.6-2c-2.3-0.6-3.7-1.5-3.7-2.8
			c0-1.6,1.8-2.7,4.5-2.7c1.4,0,2.5,0.2,3.1,0.5l-0.5,1.1c-0.4-0.2-1.4-0.5-2.6-0.5c-1.9,0-2.6,0.8-2.6,1.5c0,0.9,0.9,1.4,2.8,1.9
			c2.4,0.7,3.6,1.5,3.6,2.9c0,1.5-1.6,2.9-4.9,2.9c-1.4,0-2.8-0.3-3.6-0.7L252.5,64.7z"/>
	</g>
	<line class="st2" x1="96.3" y1="52.3" x2="261.7" y2="52.3"/>
</g>
</svg>
