<?xml version="1.0" encoding="utf-8"?>
<!-- Generator: Adobe Illustrator 19.2.0, SVG Export Plug-In . SVG Version: 6.00 Build 0)  -->
<svg version="1.1" id="Layer_1" xmlns="http://www.w3.org/2000/svg" xmlns:xlink="http://www.w3.org/1999/xlink" x="0px" y="0px"
	 width="70.1px" height="54.1px" viewBox="0 0 70.1 54.1" style="enable-background:new 0 0 70.1 54.1;" xml:space="preserve">
<style type="text/css">
	.st0{fill:#EC008C;stroke:#000000;}
	.st1{stroke:#000000;stroke-width:0.25;}
	.st2{fill:none;stroke:#000000;stroke-width:1.5;}
	.st3{fill:#FFFFFF;}
	.st4{fill:#EC008C;stroke:#FFFFFF;}
</style>
<path class="st4" d="M61.4,16.8C56.5,6.4,36.8,2.1,38.4,8c1.6,5.8,6.5,13.5,1.9,13.5H29.1c0,0,0,0-0.1,0c-3.2-0.9,0.6-7.9,2.1-13.4
	C32.7,2.3,13.7,7,8.8,17.4c-5.3,11.3,0.1,20.5,6.2,25.9c4.9,4.3,7.2-7.9,7.2-7.9c0-0.2,0.1-0.7,0.2-0.9c0.1-0.2,0.8-1.7,1.8-1.9
	c1.3-1,2.2,2.3,2.2,2.3c1.9,5,1.6,13.9,8.8,13.9c7.3,0,6.8-10.6,7.9-14c1.1-3.5,3.5-2.8,4.1,0.2c0,0,2.4,12.5,7.3,8.2
	C60.7,37.7,66.8,28.1,61.4,16.8z"/>
</svg>
